<?xml version="1.0" encoding="utf-8"?>
<!-- Generator: Adobe Illustrator 27.2.0, SVG Export Plug-In . SVG Version: 6.00 Build 0)  -->
<svg version="1.1" id="Layer_1" xmlns="http://www.w3.org/2000/svg" xmlns:xlink="http://www.w3.org/1999/xlink" x="0px" y="0px"
	 viewBox="0 0 280 222.6" style="enable-background:new 0 0 280 222.6;" xml:space="preserve">
<style type="text/css">
	.st0{opacity:0.48;}
	.st1{fill:url(#SVGID_1_);}
	.st2{fill:none;}
	.st3{fill:url(#SVGID_00000156559366222861061690000001072909909674460844_);}
	.st4{opacity:0.46;fill:#B3C6BB;enable-background:new    ;}
	.st5{opacity:0.48;fill:url(#SVGID_00000118392435536273890590000008116934775473770629_);enable-background:new    ;}
	.st6{opacity:0.56;fill:#FFA751;enable-background:new    ;}
	.st7{fill:url(#SVGID_00000120550972760810866840000011271551138807378081_);}
	.st8{fill:#2A5182;}
</style>
<g>
	<g id="Layer_2_00000054954511575991406910000014122966130391148681_">
		<g id="Layer_1-2">
			<g class="st0">
				
					<linearGradient id="SVGID_1_" gradientUnits="userSpaceOnUse" x1="58.31" y1="113.845" x2="140.91" y2="113.845" gradientTransform="matrix(1 0 0 -1 0 224)">
					<stop  offset="0" style="stop-color:#F2F2F2"/>
					<stop  offset="7.000000e-02" style="stop-color:#F2F1DC"/>
					<stop  offset="0.31" style="stop-color:#F4EFA0"/>
					<stop  offset="0.52" style="stop-color:#F6ED70"/>
					<stop  offset="0.7" style="stop-color:#F7EC4D"/>
					<stop  offset="0.85" style="stop-color:#F8EC38"/>
					<stop  offset="0.95" style="stop-color:#F9EC31"/>
				</linearGradient>
				<polygon class="st1" points="58.3,124.3 140.9,144.2 140.9,76.1 58.3,96 				"/>
				<line class="st2" x1="100.4" y1="95.5" x2="68" y2="103.3"/>
				<line class="st2" x1="131.4" y1="88.1" x2="111.2" y2="92.9"/>
				
					<linearGradient id="SVGID_00000023959694218125667040000003653027777517848961_" gradientUnits="userSpaceOnUse" x1="68.77" y1="75.51" x2="91.79" y2="75.51" gradientTransform="matrix(1 0 0 -1 0 224)">
					<stop  offset="0" style="stop-color:#F2F2F2"/>
					<stop  offset="7.000000e-02" style="stop-color:#F2F1DC"/>
					<stop  offset="0.31" style="stop-color:#F4EFA0"/>
					<stop  offset="0.52" style="stop-color:#F6ED70"/>
					<stop  offset="0.7" style="stop-color:#F7EC4D"/>
					<stop  offset="0.85" style="stop-color:#F8EC38"/>
					<stop  offset="0.95" style="stop-color:#F9EC31"/>
				</linearGradient>
				<polyline style="fill:url(#SVGID_00000023959694218125667040000003653027777517848961_);" points="90.2,132.5 91.8,164.4 
					80.6,165.2 68.8,131.8 				"/>
			</g>
			<path class="st4" d="M94.8,99.4c0,0.8,0.7,1.5,1.5,1.5s1.5-0.7,1.5-1.5s-0.7-1.5-1.5-1.5S94.8,98.6,94.8,99.4z M90.3,77.3
				c0-0.8-0.7-1.5-1.5-1.5s-1.5,0.7-1.5,1.5s0.7,1.5,1.5,1.5S90.3,78.1,90.3,77.3z M97.7,84.7c0-0.8-0.7-1.5-1.5-1.5
				s-1.5,0.7-1.5,1.5s0.7,1.5,1.5,1.5S97.7,85.5,97.7,84.7z M90.3,92.1c0-0.8-0.7-1.5-1.5-1.5s-1.5,0.7-1.5,1.5s0.7,1.5,1.5,1.5
				S90.3,92.9,90.3,92.1z M68.2,84.7c0-0.8-0.7-1.5-1.5-1.5s-1.5,0.7-1.5,1.5s0.7,1.5,1.5,1.5S68.2,85.5,68.2,84.7z M75.6,77.3
				c0-0.8-0.7-1.5-1.5-1.5s-1.5,0.7-1.5,1.5s0.7,1.5,1.5,1.5S75.6,78.1,75.6,77.3z M75.6,92c0-0.8-0.7-1.5-1.5-1.5s-1.5,0.7-1.5,1.5
				s0.7,1.5,1.5,1.5S75.6,92.9,75.6,92z M60.8,92c0-0.8-0.7-1.5-1.5-1.5s-1.5,0.7-1.5,1.5s0.7,1.5,1.5,1.5S60.8,92.9,60.8,92z
				 M60.8,77.3c0-0.8-0.7-1.5-1.5-1.5s-1.5,0.7-1.5,1.5s0.7,1.5,1.5,1.5S60.8,78.1,60.8,77.3z M68.2,99.4c0-0.8-0.7-1.5-1.5-1.5
				s-1.5,0.7-1.5,1.5s0.7,1.5,1.5,1.5S68.2,100.3,68.2,99.4z M82.9,84.7c0-0.8-0.7-1.5-1.5-1.5S80,83.8,80,84.7s0.7,1.5,1.5,1.5
				S82.9,85.5,82.9,84.7z M82.9,99.4c0-0.8-0.7-1.5-1.5-1.5S80,98.6,80,99.4s0.7,1.5,1.5,1.5S82.9,100.3,82.9,99.4z M38.6,84.7
				c0-0.8-0.7-1.5-1.5-1.5s-1.5,0.7-1.5,1.5s0.7,1.5,1.5,1.5S38.6,85.5,38.6,84.7z M31.2,77.3c0-0.8-0.7-1.5-1.5-1.5
				s-1.5,0.7-1.5,1.5s0.7,1.5,1.5,1.5S31.2,78.1,31.2,77.3z M46,77.3c0-0.8-0.7-1.5-1.5-1.5s-1.5,0.7-1.5,1.5s0.7,1.5,1.5,1.5
				S46,78.1,46,77.3z M31.2,92c0-0.8-0.7-1.5-1.5-1.5s-1.5,0.7-1.5,1.5s0.7,1.5,1.5,1.5S31.2,92.9,31.2,92z M46,92
				c0-0.8-0.7-1.5-1.5-1.5s-1.5,0.7-1.5,1.5s0.7,1.5,1.5,1.5S46,92.9,46,92z M38.6,99.4c0-0.8-0.7-1.5-1.5-1.5s-1.5,0.7-1.5,1.5
				s0.7,1.5,1.5,1.5S38.6,100.3,38.6,99.4z M53.4,84.7c0-0.8-0.7-1.5-1.5-1.5s-1.5,0.7-1.5,1.5s0.7,1.5,1.5,1.5S53.4,85.5,53.4,84.7
				z M53.4,99.4c0-0.8-0.7-1.5-1.5-1.5s-1.5,0.7-1.5,1.5s0.7,1.5,1.5,1.5S53.4,100.3,53.4,99.4z M16.5,77.3c0-0.8-0.7-1.5-1.5-1.5
				s-1.5,0.7-1.5,1.5s0.7,1.5,1.5,1.5S16.5,78.1,16.5,77.3z M16.5,92c0-0.8-0.7-1.5-1.5-1.5s-1.5,0.7-1.5,1.5s0.7,1.5,1.5,1.5
				S16.5,92.9,16.5,92z M9.1,84.7c0-0.8-0.7-1.5-1.5-1.5s-1.5,0.7-1.5,1.5s0.7,1.5,1.5,1.5S9.1,85.5,9.1,84.7z M9.1,99.4
				c0-0.8-0.7-1.5-1.5-1.5s-1.5,0.7-1.5,1.5s0.7,1.5,1.5,1.5S9.1,100.2,9.1,99.4z M23.9,84.7c0-0.8-0.7-1.5-1.5-1.5
				s-1.5,0.7-1.5,1.5s0.7,1.5,1.5,1.5S23.9,85.5,23.9,84.7z M23.9,99.4c0-0.8-0.7-1.5-1.5-1.5s-1.5,0.7-1.5,1.5s0.7,1.5,1.5,1.5
				S23.9,100.2,23.9,99.4z M97.7,55.1c0-0.8-0.7-1.5-1.5-1.5s-1.5,0.7-1.5,1.5s0.7,1.5,1.5,1.5S97.7,55.9,97.7,55.1z M90.3,62.5
				c0-0.8-0.7-1.5-1.5-1.5s-1.5,0.7-1.5,1.5S88,64,88.9,64S90.3,63.3,90.3,62.5z M90.3,47.7c0-0.8-0.7-1.5-1.5-1.5s-1.5,0.7-1.5,1.5
				s0.7,1.5,1.5,1.5S90.3,48.5,90.3,47.7z M97.7,69.9c0-0.8-0.7-1.5-1.5-1.5s-1.5,0.7-1.5,1.5s0.7,1.5,1.5,1.5S97.7,70.7,97.7,69.9z
				 M68.2,55.1c0-0.8-0.7-1.5-1.5-1.5s-1.5,0.7-1.5,1.5s0.7,1.5,1.5,1.5S68.2,55.9,68.2,55.1z M60.8,62.5c0-0.8-0.7-1.5-1.5-1.5
				s-1.5,0.7-1.5,1.5s0.7,1.5,1.5,1.5S60.8,63.3,60.8,62.5z M60.8,47.7c0-0.8-0.7-1.5-1.5-1.5s-1.5,0.7-1.5,1.5s0.7,1.5,1.5,1.5
				S60.8,48.5,60.8,47.7z M75.6,47.7c0-0.8-0.7-1.5-1.5-1.5s-1.5,0.7-1.5,1.5s0.7,1.5,1.5,1.5S75.6,48.5,75.6,47.7z M75.6,62.5
				c0-0.8-0.7-1.5-1.5-1.5s-1.5,0.7-1.5,1.5s0.7,1.5,1.5,1.5S75.6,63.3,75.6,62.5z M68.2,69.9c0-0.8-0.7-1.5-1.5-1.5
				s-1.5,0.7-1.5,1.5s0.7,1.5,1.5,1.5S68.2,70.7,68.2,69.9z M82.9,55.1c0-0.8-0.7-1.5-1.5-1.5S80,54.3,80,55.1s0.7,1.5,1.5,1.5
				S82.9,55.9,82.9,55.1z M82.9,69.9c0-0.8-0.7-1.5-1.5-1.5S80,69.1,80,69.9s0.7,1.5,1.5,1.5S82.9,70.7,82.9,69.9z M38.6,55.1
				c0-0.8-0.7-1.5-1.5-1.5s-1.5,0.7-1.5,1.5s0.7,1.5,1.5,1.5S38.6,55.9,38.6,55.1z M31.2,47.7c0-0.8-0.7-1.5-1.5-1.5
				s-1.5,0.7-1.5,1.5s0.7,1.5,1.5,1.5S31.2,48.5,31.2,47.7z M46,47.7c0-0.8-0.7-1.5-1.5-1.5s-1.5,0.7-1.5,1.5s0.7,1.5,1.5,1.5
				S46,48.5,46,47.7z M31.2,62.5c0-0.8-0.7-1.5-1.5-1.5s-1.5,0.7-1.5,1.5s0.7,1.5,1.5,1.5S31.2,63.3,31.2,62.5z M46,62.5
				c0-0.8-0.7-1.5-1.5-1.5s-1.5,0.7-1.5,1.5s0.7,1.5,1.5,1.5S46,63.3,46,62.5z M38.6,69.9c0-0.8-0.7-1.5-1.5-1.5s-1.5,0.7-1.5,1.5
				s0.7,1.5,1.5,1.5S38.6,70.7,38.6,69.9z M53.4,55.1c0-0.8-0.7-1.5-1.5-1.5s-1.5,0.7-1.5,1.5s0.7,1.5,1.5,1.5S53.4,55.9,53.4,55.1z
				 M53.4,69.9c0-0.8-0.7-1.5-1.5-1.5s-1.5,0.7-1.5,1.5s0.7,1.5,1.5,1.5S53.4,70.7,53.4,69.9z M9.1,55.1c0-0.8-0.7-1.5-1.5-1.5
				s-1.5,0.7-1.5,1.5s0.7,1.5,1.5,1.5S9.1,55.9,9.1,55.1z M16.5,47.7c0-0.8-0.7-1.5-1.5-1.5s-1.5,0.7-1.5,1.5s0.7,1.5,1.5,1.5
				S16.5,48.5,16.5,47.7z M16.5,62.5c0-0.8-0.7-1.5-1.5-1.5s-1.5,0.7-1.5,1.5S14.2,64,15,64S16.5,63.3,16.5,62.5z M9.1,69.9
				c0-0.8-0.7-1.5-1.5-1.5S6.1,69,6.1,69.9s0.7,1.5,1.5,1.5S9.1,70.7,9.1,69.9z M23.9,55.1c0-0.8-0.7-1.5-1.5-1.5s-1.5,0.7-1.5,1.5
				s0.7,1.5,1.5,1.5S23.9,55.9,23.9,55.1z M23.9,69.9c0-0.8-0.7-1.5-1.5-1.5s-1.5,0.7-1.5,1.5s0.7,1.5,1.5,1.5S23.9,70.7,23.9,69.9z
				 M90.3,18.2c0-0.8-0.7-1.5-1.5-1.5s-1.5,0.7-1.5,1.5s0.7,1.5,1.5,1.5S90.3,19,90.3,18.2z M97.7,25.6c0-0.8-0.7-1.5-1.5-1.5
				s-1.5,0.7-1.5,1.5s0.7,1.5,1.5,1.5S97.7,26.4,97.7,25.6z M90.3,33c0-0.8-0.7-1.5-1.5-1.5s-1.5,0.7-1.5,1.5s0.7,1.5,1.5,1.5
				S90.3,33.8,90.3,33z M97.7,40.3c0-0.8-0.7-1.5-1.5-1.5s-1.5,0.7-1.5,1.5s0.7,1.5,1.5,1.5S97.7,41.2,97.7,40.3z M60.8,33
				c0-0.8-0.7-1.5-1.5-1.5s-1.5,0.7-1.5,1.5s0.7,1.5,1.5,1.5S60.8,33.8,60.8,33z M68.2,25.6c0-0.8-0.7-1.5-1.5-1.5s-1.5,0.7-1.5,1.5
				s0.7,1.5,1.5,1.5S68.2,26.4,68.2,25.6z M75.6,18.2c0-0.8-0.7-1.5-1.5-1.5s-1.5,0.7-1.5,1.5s0.7,1.5,1.5,1.5S75.6,19,75.6,18.2z
				 M60.8,18.2c0-0.8-0.7-1.5-1.5-1.5s-1.5,0.7-1.5,1.5s0.7,1.5,1.5,1.5S60.8,19,60.8,18.2z M75.6,33c0-0.8-0.7-1.5-1.5-1.5
				s-1.5,0.7-1.5,1.5s0.7,1.5,1.5,1.5S75.6,33.8,75.6,33z M68.2,40.3c0-0.8-0.7-1.5-1.5-1.5s-1.5,0.7-1.5,1.5s0.7,1.5,1.5,1.5
				S68.2,41.2,68.2,40.3z M82.9,25.6c0-0.8-0.7-1.5-1.5-1.5S80,24.7,80,25.6s0.7,1.5,1.5,1.5S82.9,26.4,82.9,25.6z M82.9,40.3
				c0-0.8-0.7-1.5-1.5-1.5S80,39.5,80,40.3s0.7,1.5,1.5,1.5S82.9,41.2,82.9,40.3z M38.6,25.6c0-0.8-0.7-1.5-1.5-1.5
				s-1.5,0.7-1.5,1.5s0.7,1.5,1.5,1.5S38.6,26.4,38.6,25.6z M46,18.2c0-0.8-0.7-1.5-1.5-1.5s-1.5,0.7-1.5,1.5s0.7,1.5,1.5,1.5
				S46,19,46,18.2z M31.3,18.2c0-0.8-0.7-1.5-1.5-1.5s-1.5,0.7-1.5,1.5s0.7,1.5,1.5,1.5S31.3,19,31.3,18.2z M31.3,33
				c0-0.8-0.7-1.5-1.5-1.5s-1.5,0.7-1.5,1.5s0.7,1.5,1.5,1.5S31.3,33.8,31.3,33z M38.6,40.3c0-0.8-0.7-1.5-1.5-1.5s-1.5,0.7-1.5,1.5
				s0.7,1.5,1.5,1.5S38.6,41.2,38.6,40.3z M46,33c0-0.8-0.7-1.5-1.5-1.5s-1.5,0.7-1.5,1.5s0.7,1.5,1.5,1.5S46,33.8,46,33z
				 M53.4,25.6c0-0.8-0.7-1.5-1.5-1.5s-1.5,0.7-1.5,1.5s0.7,1.5,1.5,1.5S53.4,26.4,53.4,25.6z M53.4,40.3c0-0.8-0.7-1.5-1.5-1.5
				s-1.5,0.7-1.5,1.5s0.7,1.5,1.5,1.5S53.4,41.2,53.4,40.3z M9.1,25.6c0-0.8-0.7-1.5-1.5-1.5s-1.5,0.7-1.5,1.5S6.8,27,7.6,27
				S9.1,26.4,9.1,25.6z M16.5,18.2c0-0.8-0.7-1.5-1.5-1.5s-1.5,0.7-1.5,1.5s0.7,1.5,1.5,1.5S16.5,19,16.5,18.2z M9.1,40.3
				c0-0.8-0.7-1.5-1.5-1.5s-1.5,0.7-1.5,1.5s0.7,1.5,1.5,1.5S9.1,41.2,9.1,40.3z M16.5,33c0-0.8-0.7-1.5-1.5-1.5s-1.5,0.7-1.5,1.5
				s0.7,1.5,1.5,1.5S16.5,33.8,16.5,33z M23.9,25.6c0-0.8-0.7-1.5-1.5-1.5s-1.5,0.7-1.5,1.5s0.7,1.5,1.5,1.5S23.9,26.4,23.9,25.6z
				 M23.9,40.3c0-0.8-0.7-1.5-1.5-1.5s-1.5,0.7-1.5,1.5s0.7,1.5,1.5,1.5S23.9,41.2,23.9,40.3z M97.7,10.8c0-0.8-0.7-1.5-1.5-1.5
				s-1.5,0.7-1.5,1.5s0.7,1.5,1.5,1.5S97.7,11.6,97.7,10.8z M68.2,10.8c0-0.8-0.7-1.5-1.5-1.5s-1.5,0.7-1.5,1.5s0.7,1.5,1.5,1.5
				S68.2,11.6,68.2,10.8z M82.9,10.8c0-0.8-0.7-1.5-1.5-1.5S80,10,80,10.8s0.7,1.5,1.5,1.5S82.9,11.6,82.9,10.8z M38.6,10.8
				c0-0.8-0.7-1.5-1.5-1.5s-1.5,0.7-1.5,1.5s0.7,1.5,1.5,1.5S38.6,11.6,38.6,10.8z M53.4,10.8c0-0.8-0.7-1.5-1.5-1.5
				s-1.5,0.7-1.5,1.5s0.7,1.5,1.5,1.5S53.4,11.6,53.4,10.8z M9.1,10.8c0-0.8-0.7-1.5-1.5-1.5S6.1,10,6.1,10.8s0.7,1.5,1.5,1.5
				S9.1,11.6,9.1,10.8z M23.9,10.8c0-0.8-0.7-1.5-1.5-1.5s-1.5,0.7-1.5,1.5s0.7,1.5,1.5,1.5S23.9,11.6,23.9,10.8z"/>
			
				<linearGradient id="SVGID_00000122710657614767641730000006874335612942683839_" gradientUnits="userSpaceOnUse" x1="78.3573" y1="89.6269" x2="13.6827" y2="37.6331" gradientTransform="matrix(1 0 0 -1 0 224)">
				<stop  offset="0" style="stop-color:#C9E2D5"/>
				<stop  offset="1" style="stop-color:#FAF5CF"/>
			</linearGradient>
			
				<circle style="opacity:0.48;fill:url(#SVGID_00000122710657614767641730000006874335612942683839_);enable-background:new    ;" cx="46" cy="160.4" r="41.5"/>
			<circle class="st6" cx="174.9" cy="23.5" r="13.9"/>
			
				<linearGradient id="SVGID_00000183207381643700666450000005391409524738700930_" gradientUnits="userSpaceOnUse" x1="198.1642" y1="172.9244" x2="149.3758" y2="133.7156" gradientTransform="matrix(1 0 0 -1 0 224)">
				<stop  offset="0" style="stop-color:#C9E2D5"/>
				<stop  offset="1" style="stop-color:#FAF5CF"/>
			</linearGradient>
			
				<rect x="151.5" y="48.4" style="fill:url(#SVGID_00000183207381643700666450000005391409524738700930_);" width="44.5" height="44.5"/>
			<g>
				<g>
					<path class="st8" d="M218.1,176H59.2c-4.5,0-8.2-3.7-8.2-8.2V64.3c0-4.5,3.7-8.2,8.2-8.2h22.9c0.6,0,1,0.4,1,1s-0.4,1-1,1H59.2
						c-3.4,0-6.2,2.8-6.2,6.2v103.5c0,3.4,2.8,6.2,6.2,6.2h158.9c3.4,0,6.2-2.8,6.2-6.2V64.3c0-3.4-2.8-6.2-6.2-6.2
						c-0.6,0-1-0.4-1-1s0.4-1,1-1c4.5,0,8.2,3.7,8.2,8.2v103.5C226.3,172.3,222.6,176,218.1,176z"/>
				</g>
				<g>
					<path class="st8" d="M154.7,58.1h-13.2c-0.6,0-1-0.4-1-1s0.4-1,1-1h13.2c0.6,0,1,0.4,1,1S155.2,58.1,154.7,58.1z"/>
				</g>
				<g>
					<path class="st8" d="M220.4,159.4h-109c-0.6,0-1-0.4-1-1s0.4-1,1-1h109c0.6,0,1,0.4,1,1S221,159.4,220.4,159.4z"/>
				</g>
				<g>
					<path class="st8" d="M78,159.4H56.8c-0.6,0-1-0.4-1-1s0.4-1,1-1H78c0.6,0,1,0.4,1,1S78.6,159.4,78,159.4z"/>
				</g>
				<g>
					<g>
						<path class="st8" d="M204,96.2h-38.1c-2.9,0-5.3-2.4-5.3-5.3V52.7c0-2.9,2.4-5.3,5.3-5.3H204c2.9,0,5.3,2.4,5.3,5.3v38.1
							C209.3,93.8,206.9,96.2,204,96.2z M165.8,49.4c-1.8,0-3.3,1.5-3.3,3.3v38.1c0,1.8,1.5,3.3,3.3,3.3H204c1.8,0,3.3-1.5,3.3-3.3
							V52.7c0-1.8-1.5-3.3-3.3-3.3H165.8z"/>
					</g>
					<g>
						<path class="st8" d="M184.5,82.7c-0.3,0-0.6-0.1-0.8-0.4l-6.9-8.7c-0.3-0.4-0.9-0.7-1.4-0.7c-0.6,0-1.1,0.2-1.4,0.6l-7.9,8.8
							c-0.4,0.4-1,0.4-1.4,0.1c-0.4-0.4-0.4-1-0.1-1.4l7.9-8.8c0.8-0.9,1.9-1.3,3-1.3c1.1,0,2.2,0.6,2.9,1.5l6.9,8.7
							c0.3,0.4,0.3,1.1-0.2,1.4C184.9,82.6,184.7,82.7,184.5,82.7z"/>
					</g>
					<g>
						<path class="st8" d="M204.1,82.2c-0.3,0-0.6-0.1-0.8-0.3l-10.1-11.8c-0.3-0.4-0.8-0.6-1.3-0.7c-0.5,0-1,0.2-1.4,0.5l-6.6,6.3
							c-0.4,0.4-1,0.4-1.4,0s-0.4-1,0-1.4l6.6-6.3c0.8-0.7,1.8-1.1,2.9-1.1c1.1,0.1,2.1,0.5,2.8,1.4l10.1,11.8
							c0.4,0.4,0.3,1.1-0.1,1.4C204.6,82.1,204.4,82.2,204.1,82.2z"/>
					</g>
					<g>
						<path class="st8" d="M204.1,85.7h-38.8c-0.6,0-1-0.4-1-1s0.4-1,1-1h38.8c0.6,0,1,0.4,1,1S204.7,85.7,204.1,85.7z"/>
					</g>
					<g>
						<path class="st8" d="M181.2,69.3c-3.4,0-6.1-2.8-6.1-6.1s2.8-6.2,6.1-6.2c3.4,0,6.2,2.8,6.2,6.2S184.6,69.3,181.2,69.3z
							 M181.2,59c-2.3,0-4.1,1.9-4.1,4.2c0,2.3,1.9,4.1,4.1,4.1s4.2-1.9,4.2-4.1C185.4,60.9,183.5,59,181.2,59z"/>
					</g>
				</g>
				<g>
					<g>
						<path class="st8" d="M131.1,69.9H92.9c-2.9,0-5.3-2.4-5.3-5.3V26.4c0-2.9,2.4-5.3,5.3-5.3h38.1c2.9,0,5.3,2.4,5.3,5.3v38.1
							C136.4,67.5,134,69.9,131.1,69.9z M92.9,23.1c-1.8,0-3.3,1.5-3.3,3.3v38.1c0,1.8,1.5,3.3,3.3,3.3h38.1c1.8,0,3.3-1.5,3.3-3.3
							V26.4c0-1.8-1.5-3.3-3.3-3.3H92.9z"/>
					</g>
					<g>
						<path class="st8" d="M112,54.9c-5.2,0-9.4-4.2-9.4-9.4s4.2-9.4,9.4-9.4s9.4,4.2,9.4,9.4S117.2,54.9,112,54.9z M112,38.1
							c-4.1,0-7.4,3.3-7.4,7.4c0,4.1,3.3,7.4,7.4,7.4c4.1,0,7.4-3.3,7.4-7.4C119.4,41.4,116.1,38.1,112,38.1z"/>
					</g>
					<g>
						<path class="st8" d="M127.1,36c-2.8,0-5.1-2.3-5.1-5.1c0-2.8,2.3-5.1,5.1-5.1c2.8,0,5.1,2.3,5.1,5.1
							C132.2,33.8,129.9,36,127.1,36z M127.1,27.9c-1.7,0-3.1,1.4-3.1,3.1s1.4,3.1,3.1,3.1s3.1-1.4,3.1-3.1S128.8,27.9,127.1,27.9z"
							/>
					</g>
				</g>
				<g>
					<g>
						<path class="st8" d="M214.9,151.2h-38.1c-2.9,0-5.3-2.4-5.3-5.3v-38.1c0-2.9,2.4-5.3,5.3-5.3h38.1c2.9,0,5.3,2.4,5.3,5.3v38.1
							C220.2,148.8,217.8,151.2,214.9,151.2z M176.7,104.4c-1.8,0-3.3,1.5-3.3,3.3v38.1c0,1.8,1.5,3.3,3.3,3.3h38.1
							c1.8,0,3.3-1.5,3.3-3.3v-38.1c0-1.8-1.5-3.3-3.3-3.3H176.7z"/>
					</g>
					<g>
						<path class="st8" d="M188.1,138.2v-22.9l19.9,11.5L188.1,138.2z M190.1,118.8v16l13.9-8L190.1,118.8z"/>
					</g>
				</g>
				<g>
					<g>
						<path class="st8" d="M151.9,143.4l-84.6-20.3V93.2l84.6-20.3V143.4z M69.3,121.5l80.6,19.4V75.4L69.3,94.8V121.5z"/>
					</g>
					<g>
						<path class="st8" d="M78,102.3c-0.5,0-0.9-0.3-1-0.8c-0.1-0.5,0.2-1.1,0.7-1.2l32.4-7.8c0.5-0.1,1.1,0.2,1.2,0.7
							c0.1,0.5-0.2,1.1-0.7,1.2l-32.4,7.8C78.2,102.3,78.1,102.3,78,102.3z"/>
					</g>
					<g>
						<path class="st8" d="M121.2,91.9c-0.5,0-0.9-0.3-1-0.8c-0.1-0.5,0.2-1.1,0.7-1.2l20.1-4.8c0.5-0.1,1.1,0.2,1.2,0.7
							c0.1,0.5-0.2,1.1-0.7,1.2l-20.1,4.8C121.4,91.9,121.3,91.9,121.2,91.9z"/>
					</g>
					<g>
						<path class="st8" d="M89.9,164.3l-12.1-34.1c-0.2-0.5,0.1-1.1,0.6-1.3c0.5-0.2,1.1,0.1,1.3,0.6l11.6,32.7l9.4-0.7l-1.5-30.9
							c0-0.6,0.4-1,1-1c0.5,0,1,0.4,1,1l1.6,32.8L89.9,164.3z"/>
					</g>
					<g>
						<path class="st8" d="M68.3,131.5c-0.6,0-1-0.4-1-1V85.8c0-0.6,0.4-1,1-1s1,0.4,1,1v44.8C69.3,131.1,68.9,131.5,68.3,131.5z"/>
					</g>
					<g>
						<path class="st8" d="M150.9,151.7c-0.6,0-1-0.4-1-1v-85c0-0.6,0.4-1,1-1s1,0.4,1,1v85C151.9,151.2,151.5,151.7,150.9,151.7z"
							/>
					</g>
					<g>
						<path class="st8" d="M61.6,120.1c-0.6,0-1-0.4-1-1V97.2c0-0.6,0.4-1,1-1s1,0.4,1,1v21.9C62.6,119.6,62.2,120.1,61.6,120.1z"/>
					</g>
					<g>
						<path class="st8" d="M106.8,144.7h-5.9c-0.6,0-1-0.4-1-1s0.4-1,1-1h5.9c2,0,3.6-1.6,3.6-3.6v-6.2c0-0.6,0.4-1,1-1s1,0.4,1,1
							v6.2C112.4,142.2,109.9,144.7,106.8,144.7z"/>
					</g>
				</g>
				<g>
					<g>
						<path class="st8" d="M128.9,200.9c-0.6,0-1.1-0.5-1.1-1.1v-20.3c0-0.6,0.5-1.1,1.1-1.1s1.1,0.5,1.1,1.1v20.3
							C130.1,200.4,129.5,200.9,128.9,200.9z"/>
					</g>
					<g>
						<path class="st8" d="M152.9,200.9c-0.6,0-1.1-0.5-1.1-1.1v-20.3c0-0.6,0.5-1.1,1.1-1.1s1.1,0.5,1.1,1.1v20.3
							C154,200.4,153.5,200.9,152.9,200.9z"/>
					</g>
				</g>
				<g>
					<path class="st8" d="M179.6,207.4h-77.5v-8.4h77.5V207.4z M104.5,205.1h72.9v-3.8h-72.9V205.1z"/>
				</g>
			</g>
			<rect class="st2" width="280" height="222.6"/>
		</g>
	</g>
</g>
</svg>
