<?xml version="1.0" encoding="utf-8"?>
<!-- Generator: Adobe Illustrator 27.2.0, SVG Export Plug-In . SVG Version: 6.00 Build 0)  -->
<svg version="1.1" id="Layer_1" xmlns="http://www.w3.org/2000/svg" xmlns:xlink="http://www.w3.org/1999/xlink" x="0px" y="0px"
	 viewBox="0 0 280 222.6" style="enable-background:new 0 0 280 222.6;" xml:space="preserve">
<style type="text/css">
	.st0{fill:#FFFFFF;}
	.st1{fill:url(#SVGID_1_);}
	.st2{opacity:0.48;fill:url(#SVGID_00000161630587568655171880000015608011683323990202_);enable-background:new    ;}
	.st3{opacity:0.46;fill:#B3C6BB;enable-background:new    ;}
	.st4{fill:#F47878;}
	.st5{fill:#2A5182;}
	.st6{opacity:0.56;fill:#FFA751;enable-background:new    ;}
</style>
<g>
	<g id="Layer_2_00000036939135890026907920000000745624821439504529_">
		<g id="Layer_1-2">
			<g>
				<rect class="st0" width="280" height="222.6"/>
				<g>
					
						<linearGradient id="SVGID_1_" gradientUnits="userSpaceOnUse" x1="-2348.8" y1="-3416.75" x2="-2348.8" y2="-3290.3098" gradientTransform="matrix(6.123234e-17 1 1 -6.123234e-17 3510.6299 2481.01)">
						<stop  offset="0" style="stop-color:#F2F2F2"/>
						<stop  offset="7.000000e-02" style="stop-color:#F2F1DC"/>
						<stop  offset="0.31" style="stop-color:#F4EFA0"/>
						<stop  offset="0.52" style="stop-color:#F6ED70"/>
						<stop  offset="0.7" style="stop-color:#F7EC4D"/>
						<stop  offset="0.85" style="stop-color:#F8EC38"/>
						<stop  offset="0.95" style="stop-color:#F9EC31"/>
					</linearGradient>
					<polygon class="st1" points="188,153.1 220.3,131.9 188,111.3 188,118.7 93.9,118.7 93.9,141.6 188,141.6 					"/>
				</g>
				
					<linearGradient id="SVGID_00000111185672506598384840000003407174289097144499_" gradientUnits="userSpaceOnUse" x1="111.2462" y1="114.24" x2="25.6338" y2="45.42" gradientTransform="matrix(1 0 0 -1 0 224)">
					<stop  offset="0" style="stop-color:#C9E2D5"/>
					<stop  offset="1" style="stop-color:#FAF5CF"/>
				</linearGradient>
				
					<circle style="opacity:0.48;fill:url(#SVGID_00000111185672506598384840000003407174289097144499_);enable-background:new    ;" cx="68.4" cy="144.2" r="54.9"/>
				<path class="st3" d="M96.5,99.4c0,0.8,0.7,1.5,1.5,1.5s1.5-0.7,1.5-1.5s-0.7-1.5-1.5-1.5S96.5,98.6,96.5,99.4z M92.1,77.3
					c0-0.8-0.7-1.5-1.5-1.5s-1.5,0.7-1.5,1.5s0.7,1.5,1.5,1.5S92.1,78.1,92.1,77.3z M99.5,84.7c0-0.8-0.7-1.5-1.5-1.5
					s-1.5,0.7-1.5,1.5s0.7,1.5,1.5,1.5S99.5,85.5,99.5,84.7z M92.1,92.1c0-0.8-0.7-1.5-1.5-1.5s-1.5,0.7-1.5,1.5s0.7,1.5,1.5,1.5
					S92.1,92.9,92.1,92.1z M69.9,84.7c0-0.8-0.7-1.5-1.5-1.5S67,83.8,67,84.7s0.7,1.5,1.5,1.5S69.9,85.5,69.9,84.7z M77.3,77.3
					c0-0.8-0.7-1.5-1.5-1.5s-1.5,0.7-1.5,1.5s0.7,1.5,1.5,1.5S77.3,78.1,77.3,77.3z M77.3,92c0-0.8-0.7-1.5-1.5-1.5
					s-1.5,0.7-1.5,1.5s0.7,1.5,1.5,1.5S77.3,92.9,77.3,92z M62.5,92c0-0.8-0.7-1.5-1.5-1.5s-1.5,0.7-1.5,1.5s0.7,1.5,1.5,1.5
					S62.5,92.9,62.5,92z M62.5,77.3c0-0.8-0.7-1.5-1.5-1.5s-1.5,0.7-1.5,1.5s0.7,1.5,1.5,1.5S62.5,78.1,62.5,77.3z M69.9,99.4
					c0-0.8-0.7-1.5-1.5-1.5S67,98.6,67,99.4s0.7,1.5,1.5,1.5S69.9,100.3,69.9,99.4z M84.7,84.7c0-0.8-0.7-1.5-1.5-1.5
					s-1.5,0.7-1.5,1.5s0.7,1.5,1.5,1.5S84.7,85.5,84.7,84.7z M84.7,99.4c0-0.8-0.7-1.5-1.5-1.5s-1.5,0.7-1.5,1.5s0.7,1.5,1.5,1.5
					S84.7,100.3,84.7,99.4z M40.4,84.7c0-0.8-0.7-1.5-1.5-1.5s-1.5,0.7-1.5,1.5s0.7,1.5,1.5,1.5S40.4,85.5,40.4,84.7z M33,77.3
					c0-0.8-0.7-1.5-1.5-1.5S30,76.5,30,77.3s0.7,1.5,1.5,1.5S33,78.1,33,77.3z M47.8,77.3c0-0.8-0.7-1.5-1.5-1.5s-1.5,0.7-1.5,1.5
					s0.7,1.5,1.5,1.5S47.8,78.1,47.8,77.3z M33,92c0-0.8-0.7-1.5-1.5-1.5S30,91.2,30,92s0.7,1.5,1.5,1.5S33,92.9,33,92z M47.8,92
					c0-0.8-0.7-1.5-1.5-1.5s-1.5,0.7-1.5,1.5s0.7,1.5,1.5,1.5S47.8,92.9,47.8,92z M40.4,99.4c0-0.8-0.7-1.5-1.5-1.5
					s-1.5,0.7-1.5,1.5s0.7,1.5,1.5,1.5S40.4,100.3,40.4,99.4z M55.1,84.7c0-0.8-0.7-1.5-1.5-1.5s-1.5,0.7-1.5,1.5s0.7,1.5,1.5,1.5
					S55.1,85.5,55.1,84.7z M55.1,99.4c0-0.8-0.7-1.5-1.5-1.5s-1.5,0.7-1.5,1.5s0.7,1.5,1.5,1.5S55.1,100.3,55.1,99.4z M18.2,77.3
					c0-0.8-0.7-1.5-1.5-1.5s-1.5,0.7-1.5,1.5s0.7,1.5,1.5,1.5S18.2,78.1,18.2,77.3z M18.2,92c0-0.8-0.7-1.5-1.5-1.5
					s-1.5,0.7-1.5,1.5s0.7,1.5,1.5,1.5S18.2,92.9,18.2,92z M10.8,84.7c0-0.8-0.7-1.5-1.5-1.5s-1.5,0.7-1.5,1.5s0.7,1.5,1.5,1.5
					S10.8,85.5,10.8,84.7z M10.8,99.4c0-0.8-0.7-1.5-1.5-1.5s-1.5,0.7-1.5,1.5s0.7,1.5,1.5,1.5S10.8,100.2,10.8,99.4z M25.6,84.7
					c0-0.8-0.7-1.5-1.5-1.5s-1.5,0.7-1.5,1.5s0.7,1.5,1.5,1.5S25.6,85.5,25.6,84.7z M25.6,99.4c0-0.8-0.7-1.5-1.5-1.5
					s-1.5,0.7-1.5,1.5s0.7,1.5,1.5,1.5S25.6,100.2,25.6,99.4z M99.5,55.1c0-0.8-0.7-1.5-1.5-1.5s-1.5,0.7-1.5,1.5s0.7,1.5,1.5,1.5
					S99.5,55.9,99.5,55.1z M92.1,62.5c0-0.8-0.7-1.5-1.5-1.5s-1.5,0.7-1.5,1.5s0.7,1.5,1.5,1.5S92.1,63.3,92.1,62.5z M92.1,47.7
					c0-0.8-0.7-1.5-1.5-1.5s-1.5,0.7-1.5,1.5s0.7,1.5,1.5,1.5S92.1,48.5,92.1,47.7z M99.5,69.9c0-0.8-0.7-1.5-1.5-1.5
					s-1.5,0.7-1.5,1.5s0.7,1.5,1.5,1.5S99.5,70.7,99.5,69.9z M69.9,55.1c0-0.8-0.7-1.5-1.5-1.5S67,54.3,67,55.1s0.7,1.5,1.5,1.5
					S69.9,55.9,69.9,55.1z M62.5,62.5c0-0.8-0.7-1.5-1.5-1.5s-1.5,0.7-1.5,1.5s0.7,1.5,1.5,1.5S62.5,63.3,62.5,62.5z M62.5,47.7
					c0-0.8-0.7-1.5-1.5-1.5s-1.5,0.7-1.5,1.5s0.7,1.5,1.5,1.5S62.5,48.5,62.5,47.7z M77.3,47.7c0-0.8-0.7-1.5-1.5-1.5
					s-1.5,0.7-1.5,1.5s0.7,1.5,1.5,1.5S77.3,48.5,77.3,47.7z M77.3,62.5c0-0.8-0.7-1.5-1.5-1.5s-1.5,0.7-1.5,1.5S75,64,75.8,64
					S77.3,63.3,77.3,62.5z M69.9,69.9c0-0.8-0.7-1.5-1.5-1.5S67,69.1,67,69.9s0.7,1.5,1.5,1.5S69.9,70.7,69.9,69.9z M84.7,55.1
					c0-0.8-0.7-1.5-1.5-1.5s-1.5,0.7-1.5,1.5s0.7,1.5,1.5,1.5S84.7,55.9,84.7,55.1z M84.7,69.9c0-0.8-0.7-1.5-1.5-1.5
					s-1.5,0.7-1.5,1.5s0.7,1.5,1.5,1.5S84.7,70.7,84.7,69.9z M40.4,55.1c0-0.8-0.7-1.5-1.5-1.5s-1.5,0.7-1.5,1.5s0.7,1.5,1.5,1.5
					S40.4,55.9,40.4,55.1z M33,47.7c0-0.8-0.7-1.5-1.5-1.5S30,46.9,30,47.7s0.7,1.5,1.5,1.5S33,48.5,33,47.7z M47.8,47.7
					c0-0.8-0.7-1.5-1.5-1.5s-1.5,0.7-1.5,1.5s0.7,1.5,1.5,1.5S47.8,48.5,47.8,47.7z M33,62.5c0-0.8-0.7-1.5-1.5-1.5S30,61.7,30,62.5
					s0.7,1.5,1.5,1.5S33,63.3,33,62.5z M47.8,62.5c0-0.8-0.7-1.5-1.5-1.5s-1.5,0.7-1.5,1.5s0.7,1.5,1.5,1.5S47.8,63.3,47.8,62.5z
					 M40.4,69.9c0-0.8-0.7-1.5-1.5-1.5s-1.5,0.7-1.5,1.5s0.7,1.5,1.5,1.5S40.4,70.7,40.4,69.9z M55.1,55.1c0-0.8-0.7-1.5-1.5-1.5
					s-1.5,0.7-1.5,1.5s0.7,1.5,1.5,1.5S55.1,55.9,55.1,55.1z M55.1,69.9c0-0.8-0.7-1.5-1.5-1.5s-1.5,0.7-1.5,1.5s0.7,1.5,1.5,1.5
					S55.1,70.7,55.1,69.9z M10.8,55.1c0-0.8-0.7-1.5-1.5-1.5s-1.5,0.7-1.5,1.5s0.7,1.5,1.5,1.5S10.8,55.9,10.8,55.1z M18.2,47.7
					c0-0.8-0.7-1.5-1.5-1.5s-1.5,0.7-1.5,1.5s0.7,1.5,1.5,1.5S18.2,48.5,18.2,47.7z M18.2,62.5c0-0.8-0.7-1.5-1.5-1.5
					s-1.5,0.7-1.5,1.5s0.7,1.5,1.5,1.5S18.2,63.3,18.2,62.5z M10.8,69.9c0-0.8-0.7-1.5-1.5-1.5S7.9,69,7.9,69.9s0.7,1.5,1.5,1.5
					S10.8,70.7,10.8,69.9z M25.6,55.1c0-0.8-0.7-1.5-1.5-1.5s-1.5,0.7-1.5,1.5s0.7,1.5,1.5,1.5S25.6,55.9,25.6,55.1z M25.6,69.9
					c0-0.8-0.7-1.5-1.5-1.5s-1.5,0.7-1.5,1.5s0.7,1.5,1.5,1.5S25.6,70.7,25.6,69.9z M92.1,18.2c0-0.8-0.7-1.5-1.5-1.5
					s-1.5,0.7-1.5,1.5s0.7,1.5,1.5,1.5S92.1,19,92.1,18.2z M99.5,25.6c0-0.8-0.7-1.5-1.5-1.5s-1.5,0.7-1.5,1.5S97.2,27,98,27
					S99.5,26.4,99.5,25.6z M92.1,33c0-0.8-0.7-1.5-1.5-1.5s-1.5,0.7-1.5,1.5s0.7,1.5,1.5,1.5S92.1,33.8,92.1,33z M99.5,40.3
					c0-0.8-0.7-1.5-1.5-1.5s-1.5,0.7-1.5,1.5s0.7,1.5,1.5,1.5S99.5,41.2,99.5,40.3z M62.5,33c0-0.8-0.7-1.5-1.5-1.5
					s-1.5,0.7-1.5,1.5s0.7,1.5,1.5,1.5S62.5,33.8,62.5,33z M69.9,25.6c0-0.8-0.7-1.5-1.5-1.5S67,24.7,67,25.6s0.7,1.5,1.5,1.5
					S69.9,26.4,69.9,25.6z M77.3,18.2c0-0.8-0.7-1.5-1.5-1.5s-1.5,0.7-1.5,1.5s0.7,1.5,1.5,1.5S77.3,19,77.3,18.2z M62.5,18.2
					c0-0.8-0.7-1.5-1.5-1.5s-1.5,0.7-1.5,1.5s0.7,1.5,1.5,1.5S62.5,19,62.5,18.2z M77.3,33c0-0.8-0.7-1.5-1.5-1.5s-1.5,0.7-1.5,1.5
					s0.7,1.5,1.5,1.5S77.3,33.8,77.3,33z M69.9,40.3c0-0.8-0.7-1.5-1.5-1.5S67,39.5,67,40.3s0.7,1.5,1.5,1.5S69.9,41.2,69.9,40.3z
					 M84.7,25.6c0-0.8-0.7-1.5-1.5-1.5s-1.5,0.7-1.5,1.5s0.7,1.5,1.5,1.5S84.7,26.4,84.7,25.6z M84.7,40.3c0-0.8-0.7-1.5-1.5-1.5
					s-1.5,0.7-1.5,1.5s0.7,1.5,1.5,1.5S84.7,41.2,84.7,40.3z M40.4,25.6c0-0.8-0.7-1.5-1.5-1.5s-1.5,0.7-1.5,1.5s0.7,1.5,1.5,1.5
					S40.4,26.4,40.4,25.6z M47.8,18.2c0-0.8-0.7-1.5-1.5-1.5s-1.5,0.7-1.5,1.5s0.7,1.5,1.5,1.5S47.8,19,47.8,18.2z M33,18.2
					c0-0.8-0.7-1.5-1.5-1.5S30,17.4,30,18.2s0.7,1.5,1.5,1.5S33,19,33,18.2z M33,33c0-0.8-0.7-1.5-1.5-1.5S30,32.1,30,33
					s0.7,1.5,1.5,1.5S33,33.8,33,33z M40.4,40.3c0-0.8-0.7-1.5-1.5-1.5s-1.5,0.7-1.5,1.5s0.7,1.5,1.5,1.5S40.4,41.2,40.4,40.3z
					 M47.8,33c0-0.8-0.7-1.5-1.5-1.5s-1.5,0.7-1.5,1.5s0.7,1.5,1.5,1.5S47.8,33.8,47.8,33z M55.2,25.6c0-0.8-0.7-1.5-1.5-1.5
					s-1.5,0.7-1.5,1.5s0.7,1.5,1.5,1.5S55.2,26.4,55.2,25.6z M55.2,40.3c0-0.8-0.7-1.5-1.5-1.5s-1.5,0.7-1.5,1.5s0.7,1.5,1.5,1.5
					S55.2,41.2,55.2,40.3z M10.8,25.6c0-0.8-0.7-1.5-1.5-1.5s-1.5,0.7-1.5,1.5S8.5,27,9.4,27S10.8,26.4,10.8,25.6z M18.2,18.2
					c0-0.8-0.7-1.5-1.5-1.5s-1.5,0.7-1.5,1.5s0.7,1.5,1.5,1.5S18.2,19,18.2,18.2z M10.8,40.3c0-0.8-0.7-1.5-1.5-1.5
					s-1.5,0.7-1.5,1.5s0.7,1.5,1.5,1.5S10.8,41.2,10.8,40.3z M18.2,33c0-0.8-0.7-1.5-1.5-1.5s-1.5,0.7-1.5,1.5s0.7,1.5,1.5,1.5
					S18.2,33.8,18.2,33z M25.6,25.6c0-0.8-0.7-1.5-1.5-1.5s-1.5,0.7-1.5,1.5s0.7,1.5,1.5,1.5S25.6,26.4,25.6,25.6z M25.6,40.3
					c0-0.8-0.7-1.5-1.5-1.5s-1.5,0.7-1.5,1.5s0.7,1.5,1.5,1.5S25.6,41.2,25.6,40.3z M99.5,10.8c0-0.8-0.7-1.5-1.5-1.5
					s-1.5,0.7-1.5,1.5s0.7,1.5,1.5,1.5S99.5,11.6,99.5,10.8z M69.9,10.8c0-0.8-0.7-1.5-1.5-1.5S67,10,67,10.8s0.7,1.5,1.5,1.5
					S69.9,11.6,69.9,10.8z M84.7,10.8c0-0.8-0.7-1.5-1.5-1.5s-1.5,0.7-1.5,1.5s0.7,1.5,1.5,1.5S84.7,11.6,84.7,10.8z M40.4,10.8
					c0-0.8-0.7-1.5-1.5-1.5s-1.5,0.7-1.5,1.5s0.7,1.5,1.5,1.5S40.4,11.6,40.4,10.8z M55.2,10.8c0-0.8-0.7-1.5-1.5-1.5
					s-1.5,0.7-1.5,1.5s0.7,1.5,1.5,1.5S55.2,11.6,55.2,10.8z M10.8,10.8c0-0.8-0.7-1.5-1.5-1.5S7.9,10,7.9,10.8s0.7,1.5,1.5,1.5
					S10.8,11.6,10.8,10.8z M25.6,10.8c0-0.8-0.7-1.5-1.5-1.5s-1.5,0.7-1.5,1.5s0.7,1.5,1.5,1.5S25.6,11.6,25.6,10.8z"/>
				<g>
					<g>
						<g>
							<path class="st4" d="M169.8,80c-0.3,0-0.5-0.1-0.7-0.3l-5.9-5.9l6.2-6.2c0.4-0.4,1-0.4,1.4,0c0.4,0.4,0.4,1,0,1.4l-4.8,4.8
								l4.4,4.4c0.4,0.4,0.4,1,0,1.4C170.3,80,170.1,80,169.8,80z"/>
						</g>
						<g>
							<path class="st4" d="M182.7,80c-0.3,0-0.5-0.1-0.7-0.3c-0.4-0.4-0.4-1,0-1.4l4.8-4.8l-4.4-4.4c-0.4-0.4-0.4-1,0-1.4
								s1-0.4,1.4,0l5.9,5.9l-6.2,6.2C183.3,80,183,80,182.7,80z"/>
						</g>
					</g>
					<g>
						<path class="st4" d="M173.6,80c-0.2,0-0.3,0-0.5-0.1c-0.5-0.3-0.7-0.9-0.4-1.4l5.6-10.6c0.3-0.5,0.9-0.7,1.4-0.4
							c0.5,0.3,0.7,0.9,0.4,1.4l-5.6,10.6C174.3,79.9,174,80,173.6,80z"/>
					</g>
				</g>
				<g>
					<path class="st5" d="M176.4,109.7h-31.2c-0.6,0-1-0.4-1-1s0.4-1,1-1h31.2c0.6,0,1,0.4,1,1S177,109.7,176.4,109.7z"/>
				</g>
				<g>
					<path class="st5" d="M185.7,156.5v-13.9h-57.6c-0.6,0-1-0.4-1-1s0.4-1,1-1h59.6v12.1l30.8-20.9L187.7,111v12.1h-32.2
						c-0.6,0-1-0.4-1-1s0.4-1,1-1h30.2v-13.9l36.4,24.6L185.7,156.5z"/>
				</g>
				<g>
					<path class="st5" d="M166.6,147.9h-25.7c-0.6,0-1-0.4-1-1s0.4-1,1-1h25.7c0.6,0,1,0.4,1,1S167.2,147.9,166.6,147.9z"/>
				</g>
				<g>
					<path class="st5" d="M134.8,147.9h-4c-0.6,0-1-0.4-1-1s0.4-1,1-1h4c0.6,0,1,0.4,1,1S135.3,147.9,134.8,147.9z"/>
				</g>
				<g>
					<path class="st5" d="M124.5,147.9h-3.2c-0.6,0-1-0.4-1-1s0.4-1,1-1h3.2c0.6,0,1,0.4,1,1S125,147.9,124.5,147.9z"/>
				</g>
				<g>
					<path class="st5" d="M219.3,176.2H60.9c-4.5,0-8.2-3.7-8.2-8.2v-28c0-0.6,0.4-1,1-1s1,0.4,1,1v28c0,3.4,2.8,6.2,6.2,6.2h158.4
						c3.4,0,6.2-2.8,6.2-6.2V64.8c0-3.4-2.8-6.2-6.2-6.2h-13.5c-0.6,0-1-0.4-1-1s0.4-1,1-1h13.5c4.5,0,8.2,3.7,8.2,8.2V168
						C227.5,172.5,223.8,176.2,219.3,176.2z"/>
				</g>
				<g>
					<path class="st5" d="M221.7,159.6H58.5c-0.6,0-1-0.4-1-1s0.4-1,1-1h163.2c0.6,0,1,0.4,1,1S222.2,159.6,221.7,159.6z"/>
				</g>
				<g>
					<g>
						<path class="st5" d="M127.5,200.9c-0.6,0-1.1-0.5-1.1-1.1v-20.3c0-0.6,0.5-1.1,1.1-1.1s1.1,0.5,1.1,1.1v20.3
							C128.6,200.4,128.1,200.9,127.5,200.9z"/>
					</g>
					<g>
						<path class="st5" d="M151.4,200.9c-0.6,0-1.1-0.5-1.1-1.1v-20.3c0-0.6,0.5-1.1,1.1-1.1s1.1,0.5,1.1,1.1v20.3
							C152.6,200.4,152.1,200.9,151.4,200.9z"/>
					</g>
				</g>
				<g>
					<path class="st5" d="M178.2,207.4h-77.5v-8.4h77.5V207.4z M103,205.1h72.9v-3.8H103V205.1z"/>
				</g>
				<circle class="st6" cx="221.2" cy="164.9" r="19.9"/>
				<g>
					<g>
						<path class="st5" d="M262.1,94H233c-0.6,0-1-0.4-1-1s0.4-1,1-1h29.1c5.6,0,10.1-4.5,10.1-10.1s-4.5-10.1-10.1-10.1H233
							c-0.6,0-1-0.4-1-1s0.4-1,1-1h29.1c6.7,0,12.1,5.4,12.1,12.1S268.8,94,262.1,94z"/>
					</g>
					<g>
						<path class="st5" d="M251,87.6c-2.4,0-4.4-2-4.4-4.4v-6c0-0.6,0.4-1,1-1s1,0.4,1,1v6c0,1.3,1.1,2.4,2.4,2.4s2.4-1.1,2.4-2.4
							v-6c0-0.6,0.4-1,1-1s1,0.4,1,1v6C255.4,85.7,253.4,87.6,251,87.6z"/>
					</g>
					<g>
						<path class="st5" d="M258.7,87.6c-0.6,0-1-0.4-1-1v-9.5c0-0.6,0.4-1,1-1s1,0.4,1,1v9.5C259.7,87.2,259.2,87.6,258.7,87.6z"/>
					</g>
					<g>
						<path class="st5" d="M262.1,121.3H228c-0.6,0-1-0.4-1-1s0.4-1,1-1h34.1c5.6,0,10.1-4.5,10.1-10.1S267.7,99,262.1,99H233
							c-0.6,0-1-0.4-1-1s0.4-1,1-1h29.1c6.7,0,12.1,5.4,12.1,12.1C274.2,115.9,268.8,121.3,262.1,121.3z"/>
					</g>
					<g>
						<g>
							<path class="st5" d="M249.4,114.9c-2.4,0-4.4-2-4.4-4.4v-6c0-0.6,0.4-1,1-1s1,0.4,1,1v6c0,1.3,1.1,2.4,2.4,2.4
								s2.4-1.1,2.4-2.4v-6c0-0.6,0.4-1,1-1s1,0.4,1,1v6C253.8,112.9,251.8,114.9,249.4,114.9z"/>
						</g>
						<g>
							<path class="st5" d="M263.7,114.9c-0.3,0-0.6-0.1-0.8-0.4l-7-9.5c-0.3-0.4-0.2-1.1,0.2-1.4s1.1-0.2,1.4,0.2l7,9.5
								c0.3,0.4,0.2,1.1-0.2,1.4C264.1,114.8,263.9,114.9,263.7,114.9z"/>
						</g>
						<g>
							<path class="st5" d="M256.7,114.9c-0.2,0-0.4-0.1-0.6-0.2c-0.4-0.3-0.5-1-0.2-1.4l7-9.5c0.3-0.4,1-0.5,1.4-0.2s0.5,1,0.2,1.4
								l-7,9.5C257.3,114.8,257,114.9,256.7,114.9z"/>
						</g>
					</g>
				</g>
				<g>
					<g>
						<path class="st5" d="M133,65.8h-27c-1.8,0-3.3-1.5-3.3-3.3s1.5-3.3,3.3-3.3h27c1.8,0,3.3,1.5,3.3,3.3S134.8,65.8,133,65.8z
							 M106,61.2c-0.7,0-1.3,0.6-1.3,1.3s0.6,1.3,1.3,1.3h27c0.7,0,1.3-0.6,1.3-1.3s-0.6-1.3-1.3-1.3H106z"/>
					</g>
					<g>
						<path class="st5" d="M137.6,136.5H28.9c-2.5,0-4.5-2-4.5-4.5V59c0-2.5,2-4.5,4.5-4.5h108.7c2.5,0,4.5,2,4.5,4.5v73
							C142.1,134.5,140.1,136.5,137.6,136.5z M28.9,56.5c-1.4,0-2.5,1.1-2.5,2.5v73c0,1.4,1.1,2.5,2.5,2.5h108.7
							c1.4,0,2.5-1.1,2.5-2.5V59c0-1.4-1.1-2.5-2.5-2.5H28.9z"/>
					</g>
					<g>
						<path class="st5" d="M142.1,85.2H24.3V69h117.7V85.2z M26.3,83.2h113.7V71H26.3V83.2z"/>
					</g>
					<g>
						<g>
							<g>
								<path class="st5" d="M46.2,109.4c-5.9,0-10.7-4.8-10.7-10.7c0-5.9,4.8-10.7,10.7-10.7c5.9,0,10.7,4.8,10.7,10.7
									C56.9,104.6,52.1,109.4,46.2,109.4z M46.2,90c-4.8,0-8.7,3.9-8.7,8.7s3.9,8.7,8.7,8.7s8.7-3.9,8.7-8.7S51,90,46.2,90z"/>
							</g>
							<g>
								<path class="st5" d="M60.9,115.8H31.5c-0.6,0-1-0.4-1-1s0.4-1,1-1h29.4c0.6,0,1,0.4,1,1S61.4,115.8,60.9,115.8z"/>
							</g>
							<g>
								<path class="st5" d="M61.4,131H31v-12.1h30.4V131z M33,129h26.4v-8.1H33V129z"/>
							</g>
						</g>
						<g>
							<g>
								<path class="st5" d="M83.2,109.4c-5.9,0-10.7-4.8-10.7-10.7c0-5.9,4.8-10.7,10.7-10.7C89.1,88,94,92.8,94,98.7
									C94,104.6,89.1,109.4,83.2,109.4z M83.2,90c-4.8,0-8.7,3.9-8.7,8.7s3.9,8.7,8.7,8.7s8.7-3.9,8.7-8.7S88,90,83.2,90z"/>
							</g>
							<g>
								<path class="st5" d="M97.9,115.8H68.5c-0.6,0-1-0.4-1-1s0.4-1,1-1h29.4c0.6,0,1,0.4,1,1S98.5,115.8,97.9,115.8z"/>
							</g>
							<g>
								<path class="st5" d="M98.4,131H68v-12.1h30.4V131z M70,129h26.4v-8.1H70V129z"/>
							</g>
						</g>
						<g>
							<g>
								<path class="st5" d="M120.2,109.4c-5.9,0-10.7-4.8-10.7-10.7c0-5.9,4.8-10.7,10.7-10.7S131,92.8,131,98.7
									C131,104.6,126.2,109.4,120.2,109.4z M120.2,90c-4.8,0-8.7,3.9-8.7,8.7s3.9,8.7,8.7,8.7s8.7-3.9,8.7-8.7S125.1,90,120.2,90z
									"/>
							</g>
							<g>
								<path class="st5" d="M135,115.8h-29.4c-0.6,0-1-0.4-1-1s0.4-1,1-1H135c0.6,0,1,0.4,1,1S135.5,115.8,135,115.8z"/>
							</g>
							<g>
								<path class="st5" d="M135.5,131h-30.4v-12.1h30.4V131z M107.1,129h26.4v-8.1h-26.4V129z"/>
							</g>
						</g>
					</g>
				</g>
				<g>
					<g>
						<path class="st5" d="M183.9,52.2h-40.3V39.7h40.3V52.2z M145.6,50.2h36.3v-8.6h-36.3V50.2z"/>
					</g>
					<g>
						<path class="st5" d="M159.1,58.5h-14.2c-0.6,0-1-0.4-1-1s0.4-1,1-1h14.2c0.6,0,1,0.4,1,1S159.7,58.5,159.1,58.5z"/>
					</g>
					<g>
						<path class="st5" d="M159.1,69.6h-14.2c-0.6,0-1-0.4-1-1s0.4-1,1-1h14.2c0.6,0,1,0.4,1,1S159.7,69.6,159.1,69.6z"/>
					</g>
					<g>
						<path class="st5" d="M159.1,80.8h-14.2c-0.6,0-1-0.4-1-1s0.4-1,1-1h14.2c0.6,0,1,0.4,1,1S159.7,80.8,159.1,80.8z"/>
					</g>
					<g>
						<path class="st5" d="M196.1,96.1h-29.2c-0.6,0-1-0.4-1-1s0.4-1,1-1h29.2c1.1,0,2-0.9,2-1.9V22.1c0-1.1-0.9-1.9-2-1.9h-62.4
							c-1.1,0-2,0.9-2,1.9v29.2c0,0.6-0.4,1-1,1s-1-0.4-1-1V22.1c0-2.2,1.8-3.9,4-3.9h62.4c2.2,0,4,1.8,4,3.9v70.1
							C200.1,94.4,198.3,96.1,196.1,96.1z"/>
					</g>
					<g>
						<path class="st5" d="M194.9,90h-47.5c-0.6,0-1-0.4-1-1s0.4-1,1-1h45.5V33.6h-56.1v21c0,0.6-0.4,1-1,1s-1-0.4-1-1v-23h60.1V90z
							"/>
					</g>
				</g>
				<g>
					<g>
						<path class="st5" d="M114.9,42.3c-1.9,0-3.5-1.6-3.5-3.5c0-1.9,1.6-3.5,3.5-3.5c1.9,0,3.5,1.6,3.5,3.5
							C118.4,40.8,116.8,42.3,114.9,42.3z M114.9,37.4c-0.8,0-1.5,0.7-1.5,1.5s0.7,1.5,1.5,1.5s1.5-0.7,1.5-1.5
							S115.7,37.4,114.9,37.4z"/>
					</g>
					<g>
						<path class="st5" d="M121.1,46.8H57.1c-1.5,0-2.6-1.2-2.6-2.6V33.6c0-1.5,1.2-2.6,2.6-2.6h63.9c1.5,0,2.7,1.2,2.7,2.6v10.6
							C123.7,45.6,122.6,46.8,121.1,46.8z M57.1,32.9c-0.4,0-0.6,0.3-0.6,0.6v10.6c0,0.4,0.3,0.6,0.6,0.6h63.9
							c0.4,0,0.7-0.3,0.7-0.6V33.6c0-0.4-0.3-0.6-0.7-0.6H57.1z"/>
					</g>
					<g>
						<path class="st5" d="M107,46.8c-0.6,0-1-0.4-1-1V31.9c0-0.6,0.4-1,1-1s1,0.4,1,1v13.9C108,46.4,107.6,46.8,107,46.8z"/>
					</g>
				</g>
				<g>
					<g>
						<path class="st5" d="M232.7,49.9h-21.4c-1.5,0-2.8-1.2-2.8-2.8V25.7c0-1.5,1.2-2.8,2.8-2.8h21.4c1.5,0,2.8,1.2,2.8,2.8v21.4
							C235.5,48.6,234.2,49.9,232.7,49.9z M211.3,24.9c-0.4,0-0.8,0.3-0.8,0.8v21.4c0,0.4,0.3,0.8,0.8,0.8h21.4
							c0.4,0,0.8-0.3,0.8-0.8V25.7c0-0.4-0.3-0.8-0.8-0.8H211.3z"/>
					</g>
					<g>
						<g>
							<path class="st5" d="M222,46.8l-0.7-0.8c-0.7-0.8-7-8-7-11.9c0-4.3,3.5-7.7,7.7-7.7c4.3,0,7.7,3.5,7.7,7.7
								c0,4-6.2,11.1-7,11.9L222,46.8z M222,28.3c-3.1,0-5.7,2.6-5.7,5.7c0,2.4,3.6,7.2,5.7,9.7c2.1-2.5,5.7-7.3,5.7-9.7
								C227.7,30.9,225.1,28.3,222,28.3z"/>
						</g>
						<g>
							<path class="st5" d="M222,38c-2.1,0-3.8-1.7-3.8-3.8c0-2.1,1.7-3.8,3.8-3.8c2.1,0,3.8,1.7,3.8,3.8
								C225.8,36.3,224.1,38,222,38z M222,32.4c-1,0-1.8,0.8-1.8,1.8c0,1,0.8,1.8,1.8,1.8s1.8-0.8,1.8-1.8
								C223.8,33.2,223,32.4,222,32.4z"/>
						</g>
					</g>
				</g>
			</g>
		</g>
	</g>
</g>
</svg>
