<?xml version="1.0" encoding="utf-8"?>
<!-- Generator: Adobe Illustrator 27.2.0, SVG Export Plug-In . SVG Version: 6.00 Build 0)  -->
<svg version="1.1" id="Layer_1" xmlns="http://www.w3.org/2000/svg" xmlns:xlink="http://www.w3.org/1999/xlink" x="0px" y="0px"
	 viewBox="0 0 280 222.6" style="enable-background:new 0 0 280 222.6;" xml:space="preserve">
<style type="text/css">
	.st0{fill:#FFFFFF;}
	.st1{opacity:0.48;fill:url(#SVGID_1_);enable-background:new    ;}
	.st2{opacity:0.46;fill:#B3C6BB;enable-background:new    ;}
	.st3{fill:url(#SVGID_00000104685396401352042350000015336711201048610977_);}
	.st4{fill:#2A5182;}
	.st5{fill:url(#SVGID_00000149377677794839530220000000068317362520799414_);}
	.st6{opacity:0.56;fill:#FFA751;enable-background:new    ;}
</style>
<g>
	<g id="Layer_2_00000108296461770157729970000018041372932328605107_">
		<g id="Layer_1-2">
			<g>
				<rect class="st0" width="280" height="222.6"/>
				
					<linearGradient id="SVGID_1_" gradientUnits="userSpaceOnUse" x1="121.4182" y1="108.0275" x2="35.8018" y2="39.2124" gradientTransform="matrix(1 0 0 -1 0 224)">
					<stop  offset="0" style="stop-color:#C9E2D5"/>
					<stop  offset="1" style="stop-color:#FAF5CF"/>
				</linearGradient>
				<circle class="st1" cx="78.6" cy="150.4" r="54.9"/>
				<path class="st2" d="M105.2,99.4c0,0.8,0.7,1.5,1.5,1.5s1.5-0.7,1.5-1.5s-0.7-1.5-1.5-1.5S105.2,98.6,105.2,99.4z M100.8,77.3
					c0-0.8-0.7-1.5-1.5-1.5s-1.5,0.7-1.5,1.5s0.7,1.5,1.5,1.5S100.8,78.1,100.8,77.3z M108.1,84.7c0-0.8-0.7-1.5-1.5-1.5
					s-1.5,0.7-1.5,1.5s0.7,1.5,1.5,1.5S108.1,85.5,108.1,84.7z M100.8,92.1c0-0.8-0.7-1.5-1.5-1.5s-1.5,0.7-1.5,1.5s0.7,1.5,1.5,1.5
					S100.8,92.9,100.8,92.1z M78.6,84.7c0-0.8-0.7-1.5-1.5-1.5s-1.5,0.7-1.5,1.5s0.7,1.5,1.5,1.5S78.6,85.5,78.6,84.7z M86,77.3
					c0-0.8-0.7-1.5-1.5-1.5S83,76.5,83,77.3s0.7,1.5,1.5,1.5S86,78.1,86,77.3z M86,92c0-0.8-0.7-1.5-1.5-1.5S83,91.2,83,92
					s0.7,1.5,1.5,1.5S86,92.9,86,92z M71.2,92c0-0.8-0.7-1.5-1.5-1.5s-1.5,0.7-1.5,1.5s0.7,1.5,1.5,1.5S71.2,92.9,71.2,92z
					 M71.2,77.3c0-0.8-0.7-1.5-1.5-1.5s-1.5,0.7-1.5,1.5s0.7,1.5,1.5,1.5S71.2,78.1,71.2,77.3z M78.6,99.4c0-0.8-0.7-1.5-1.5-1.5
					s-1.5,0.7-1.5,1.5s0.7,1.5,1.5,1.5S78.6,100.3,78.6,99.4z M93.4,84.7c0-0.8-0.7-1.5-1.5-1.5s-1.5,0.7-1.5,1.5s0.7,1.5,1.5,1.5
					S93.4,85.5,93.4,84.7z M93.4,99.4c0-0.8-0.7-1.5-1.5-1.5s-1.5,0.7-1.5,1.5s0.7,1.5,1.5,1.5S93.4,100.3,93.4,99.4z M49.1,84.7
					c0-0.8-0.7-1.5-1.5-1.5s-1.5,0.7-1.5,1.5s0.7,1.5,1.5,1.5S49.1,85.5,49.1,84.7z M41.7,77.3c0-0.8-0.7-1.5-1.5-1.5
					s-1.5,0.7-1.5,1.5s0.7,1.5,1.5,1.5S41.7,78.1,41.7,77.3z M56.5,77.3c0-0.8-0.7-1.5-1.5-1.5s-1.5,0.7-1.5,1.5s0.7,1.5,1.5,1.5
					S56.5,78.1,56.5,77.3z M41.7,92c0-0.8-0.7-1.5-1.5-1.5s-1.5,0.7-1.5,1.5s0.7,1.5,1.5,1.5S41.7,92.9,41.7,92z M56.5,92
					c0-0.8-0.7-1.5-1.5-1.5s-1.5,0.7-1.5,1.5s0.7,1.5,1.5,1.5S56.5,92.9,56.5,92z M49.1,99.4c0-0.8-0.7-1.5-1.5-1.5
					s-1.5,0.7-1.5,1.5s0.7,1.5,1.5,1.5S49.1,100.3,49.1,99.4z M63.8,84.7c0-0.8-0.7-1.5-1.5-1.5s-1.5,0.7-1.5,1.5s0.7,1.5,1.5,1.5
					S63.8,85.5,63.8,84.7z M63.8,99.4c0-0.8-0.7-1.5-1.5-1.5s-1.5,0.7-1.5,1.5s0.7,1.5,1.5,1.5S63.8,100.3,63.8,99.4z M26.9,77.3
					c0-0.8-0.7-1.5-1.5-1.5s-1.5,0.7-1.5,1.5s0.7,1.5,1.5,1.5S26.9,78.1,26.9,77.3z M26.9,92c0-0.8-0.7-1.5-1.5-1.5
					s-1.5,0.7-1.5,1.5s0.7,1.5,1.5,1.5S26.9,92.9,26.9,92z M19.5,84.7c0-0.8-0.7-1.5-1.5-1.5s-1.5,0.7-1.5,1.5s0.7,1.5,1.5,1.5
					S19.5,85.5,19.5,84.7z M19.5,99.4c0-0.8-0.7-1.5-1.5-1.5s-1.5,0.7-1.5,1.5s0.7,1.5,1.5,1.5S19.5,100.2,19.5,99.4z M34.3,84.7
					c0-0.8-0.7-1.5-1.5-1.5s-1.5,0.7-1.5,1.5s0.7,1.5,1.5,1.5S34.3,85.5,34.3,84.7z M34.3,99.4c0-0.8-0.7-1.5-1.5-1.5
					s-1.5,0.7-1.5,1.5s0.7,1.5,1.5,1.5S34.3,100.2,34.3,99.4z M108.2,55.1c0-0.8-0.7-1.5-1.5-1.5s-1.5,0.7-1.5,1.5s0.7,1.5,1.5,1.5
					S108.2,55.9,108.2,55.1z M100.8,62.5c0-0.8-0.7-1.5-1.5-1.5s-1.5,0.7-1.5,1.5s0.7,1.5,1.5,1.5S100.8,63.3,100.8,62.5z
					 M100.8,47.7c0-0.8-0.7-1.5-1.5-1.5s-1.5,0.7-1.5,1.5s0.7,1.5,1.5,1.5S100.8,48.5,100.8,47.7z M108.2,69.9
					c0-0.8-0.7-1.5-1.5-1.5s-1.5,0.7-1.5,1.5s0.7,1.5,1.5,1.5S108.2,70.7,108.2,69.9z M78.6,55.1c0-0.8-0.7-1.5-1.5-1.5
					s-1.5,0.7-1.5,1.5s0.7,1.5,1.5,1.5S78.6,55.9,78.6,55.1z M71.2,62.5c0-0.8-0.7-1.5-1.5-1.5s-1.5,0.7-1.5,1.5s0.7,1.5,1.5,1.5
					S71.2,63.3,71.2,62.5z M71.2,47.7c0-0.8-0.7-1.5-1.5-1.5s-1.5,0.7-1.5,1.5s0.7,1.5,1.5,1.5S71.2,48.5,71.2,47.7z M86,47.7
					c0-0.8-0.7-1.5-1.5-1.5S83,46.9,83,47.7s0.7,1.5,1.5,1.5S86,48.5,86,47.7z M86,62.5c0-0.8-0.7-1.5-1.5-1.5S83,61.7,83,62.5
					s0.7,1.5,1.5,1.5S86,63.3,86,62.5z M78.6,69.9c0-0.8-0.7-1.5-1.5-1.5s-1.5,0.7-1.5,1.5s0.7,1.5,1.5,1.5S78.6,70.7,78.6,69.9z
					 M93.4,55.1c0-0.8-0.7-1.5-1.5-1.5s-1.5,0.7-1.5,1.5s0.7,1.5,1.5,1.5S93.4,55.9,93.4,55.1z M93.4,69.9c0-0.8-0.7-1.5-1.5-1.5
					s-1.5,0.7-1.5,1.5s0.7,1.5,1.5,1.5S93.4,70.7,93.4,69.9z M49.1,55.1c0-0.8-0.7-1.5-1.5-1.5s-1.5,0.7-1.5,1.5s0.7,1.5,1.5,1.5
					S49.1,55.9,49.1,55.1z M41.7,47.7c0-0.8-0.7-1.5-1.5-1.5s-1.5,0.7-1.5,1.5s0.7,1.5,1.5,1.5S41.7,48.5,41.7,47.7z M56.5,47.7
					c0-0.8-0.7-1.5-1.5-1.5s-1.5,0.7-1.5,1.5s0.7,1.5,1.5,1.5S56.5,48.5,56.5,47.7z M41.7,62.5c0-0.8-0.7-1.5-1.5-1.5
					s-1.5,0.7-1.5,1.5s0.7,1.5,1.5,1.5S41.7,63.3,41.7,62.5z M56.5,62.5c0-0.8-0.7-1.5-1.5-1.5s-1.5,0.7-1.5,1.5S54.2,64,55,64
					S56.5,63.3,56.5,62.5z M49.1,69.9c0-0.8-0.7-1.5-1.5-1.5s-1.5,0.7-1.5,1.5s0.7,1.5,1.5,1.5S49.1,70.7,49.1,69.9z M63.8,55.1
					c0-0.8-0.7-1.5-1.5-1.5s-1.5,0.7-1.5,1.5s0.7,1.5,1.5,1.5S63.8,55.9,63.8,55.1z M63.8,69.9c0-0.8-0.7-1.5-1.5-1.5
					s-1.5,0.7-1.5,1.5s0.7,1.5,1.5,1.5S63.8,70.7,63.8,69.9z M19.5,55.1c0-0.8-0.7-1.5-1.5-1.5s-1.5,0.7-1.5,1.5s0.7,1.5,1.5,1.5
					S19.5,55.9,19.5,55.1z M26.9,47.7c0-0.8-0.7-1.5-1.5-1.5s-1.5,0.7-1.5,1.5s0.7,1.5,1.5,1.5S26.9,48.5,26.9,47.7z M26.9,62.5
					c0-0.8-0.7-1.5-1.5-1.5s-1.5,0.7-1.5,1.5s0.7,1.5,1.5,1.5S26.9,63.3,26.9,62.5z M19.5,69.9c0-0.8-0.7-1.5-1.5-1.5
					s-1.5,0.7-1.5,1.5s0.7,1.5,1.5,1.5S19.5,70.7,19.5,69.9z M34.3,55.1c0-0.8-0.7-1.5-1.5-1.5s-1.5,0.7-1.5,1.5s0.7,1.5,1.5,1.5
					S34.3,55.9,34.3,55.1z M34.3,69.9c0-0.8-0.7-1.5-1.5-1.5s-1.5,0.7-1.5,1.5s0.7,1.5,1.5,1.5S34.3,70.7,34.3,69.9z M100.8,18.2
					c0-0.8-0.7-1.5-1.5-1.5s-1.5,0.7-1.5,1.5s0.7,1.5,1.5,1.5S100.8,19,100.8,18.2z M108.1,25.6c0-0.8-0.7-1.5-1.5-1.5
					s-1.5,0.7-1.5,1.5s0.7,1.5,1.5,1.5S108.1,26.4,108.1,25.6z M100.8,33c0-0.8-0.7-1.5-1.5-1.5s-1.5,0.7-1.5,1.5s0.7,1.5,1.5,1.5
					S100.8,33.8,100.8,33z M108.1,40.3c0-0.8-0.7-1.5-1.5-1.5s-1.5,0.7-1.5,1.5s0.7,1.5,1.5,1.5S108.1,41.2,108.1,40.3z M71.2,33
					c0-0.8-0.7-1.5-1.5-1.5s-1.5,0.7-1.5,1.5s0.7,1.5,1.5,1.5S71.2,33.8,71.2,33z M78.6,25.6c0-0.8-0.7-1.5-1.5-1.5
					s-1.5,0.7-1.5,1.5s0.7,1.5,1.5,1.5S78.6,26.4,78.6,25.6z M86,18.2c0-0.8-0.7-1.5-1.5-1.5S83,17.4,83,18.2s0.7,1.5,1.5,1.5
					S86,19,86,18.2z M71.2,18.2c0-0.8-0.7-1.5-1.5-1.5s-1.5,0.7-1.5,1.5s0.7,1.5,1.5,1.5S71.2,19,71.2,18.2z M86,33
					c0-0.8-0.7-1.5-1.5-1.5S83,32.1,83,33s0.7,1.5,1.5,1.5S86,33.8,86,33z M78.6,40.3c0-0.8-0.7-1.5-1.5-1.5s-1.5,0.7-1.5,1.5
					s0.7,1.5,1.5,1.5S78.6,41.2,78.6,40.3z M93.4,25.6c0-0.8-0.7-1.5-1.5-1.5s-1.5,0.7-1.5,1.5s0.7,1.5,1.5,1.5S93.4,26.4,93.4,25.6
					z M93.4,40.3c0-0.8-0.7-1.5-1.5-1.5s-1.5,0.7-1.5,1.5s0.7,1.5,1.5,1.5S93.4,41.2,93.4,40.3z M49.1,25.6c0-0.8-0.7-1.5-1.5-1.5
					s-1.5,0.7-1.5,1.5s0.7,1.5,1.5,1.5S49.1,26.4,49.1,25.6z M56.5,18.2c0-0.8-0.7-1.5-1.5-1.5s-1.5,0.7-1.5,1.5s0.7,1.5,1.5,1.5
					S56.5,19,56.5,18.2z M41.7,18.2c0-0.8-0.7-1.5-1.5-1.5s-1.5,0.7-1.5,1.5s0.7,1.5,1.5,1.5S41.7,19,41.7,18.2z M41.7,33
					c0-0.8-0.7-1.5-1.5-1.5s-1.5,0.7-1.5,1.5s0.7,1.5,1.5,1.5S41.7,33.8,41.7,33z M49.1,40.3c0-0.8-0.7-1.5-1.5-1.5
					s-1.5,0.7-1.5,1.5s0.7,1.5,1.5,1.5S49.1,41.2,49.1,40.3z M56.5,33c0-0.8-0.7-1.5-1.5-1.5s-1.5,0.7-1.5,1.5s0.7,1.5,1.5,1.5
					S56.5,33.8,56.5,33z M63.8,25.6c0-0.8-0.7-1.5-1.5-1.5s-1.5,0.7-1.5,1.5s0.7,1.5,1.5,1.5S63.8,26.4,63.8,25.6z M63.8,40.3
					c0-0.8-0.7-1.5-1.5-1.5s-1.5,0.7-1.5,1.5s0.7,1.5,1.5,1.5S63.8,41.2,63.8,40.3z M19.5,25.6c0-0.8-0.7-1.5-1.5-1.5
					s-1.5,0.7-1.5,1.5s0.7,1.5,1.5,1.5S19.5,26.4,19.5,25.6z M26.9,18.2c0-0.8-0.7-1.5-1.5-1.5S24,17.4,24,18.2s0.7,1.5,1.5,1.5
					S26.9,19,26.9,18.2z M19.5,40.3c0-0.8-0.7-1.5-1.5-1.5s-1.5,0.7-1.5,1.5s0.7,1.5,1.5,1.5S19.5,41.2,19.5,40.3z M26.9,33
					c0-0.8-0.7-1.5-1.5-1.5S24,32.1,24,33s0.7,1.5,1.5,1.5S26.9,33.8,26.9,33z M34.3,25.6c0-0.8-0.7-1.5-1.5-1.5s-1.5,0.7-1.5,1.5
					S32,27,32.8,27S34.3,26.4,34.3,25.6z M34.3,40.3c0-0.8-0.7-1.5-1.5-1.5s-1.5,0.7-1.5,1.5s0.7,1.5,1.5,1.5S34.3,41.2,34.3,40.3z
					 M108.2,10.8c0-0.8-0.7-1.5-1.5-1.5s-1.5,0.7-1.5,1.5s0.7,1.5,1.5,1.5S108.2,11.6,108.2,10.8z M78.6,10.8c0-0.8-0.7-1.5-1.5-1.5
					s-1.5,0.7-1.5,1.5s0.7,1.5,1.5,1.5S78.6,11.6,78.6,10.8z M93.4,10.8c0-0.8-0.7-1.5-1.5-1.5s-1.5,0.7-1.5,1.5s0.7,1.5,1.5,1.5
					S93.4,11.6,93.4,10.8z M49.1,10.8c0-0.8-0.7-1.5-1.5-1.5s-1.5,0.7-1.5,1.5s0.7,1.5,1.5,1.5S49.1,11.6,49.1,10.8z M63.8,10.8
					c0-0.8-0.7-1.5-1.5-1.5s-1.5,0.7-1.5,1.5s0.7,1.5,1.5,1.5S63.8,11.6,63.8,10.8z M19.5,10.8c0-0.8-0.7-1.5-1.5-1.5
					s-1.5,0.7-1.5,1.5s0.7,1.5,1.5,1.5S19.5,11.6,19.5,10.8z M34.3,10.8c0-0.8-0.7-1.5-1.5-1.5s-1.5,0.7-1.5,1.5s0.7,1.5,1.5,1.5
					S34.3,11.6,34.3,10.8z"/>
				
					<linearGradient id="SVGID_00000023259658752503182170000016291282763776542115_" gradientUnits="userSpaceOnUse" x1="157.62" y1="105.98" x2="231.86" y2="105.98" gradientTransform="matrix(1 0 0 -1 0 224)">
					<stop  offset="0" style="stop-color:#F2F2F2"/>
					<stop  offset="7.000000e-02" style="stop-color:#F2F1DC"/>
					<stop  offset="0.31" style="stop-color:#F4EFA0"/>
					<stop  offset="0.52" style="stop-color:#F6ED70"/>
					<stop  offset="0.7" style="stop-color:#F7EC4D"/>
					<stop  offset="0.85" style="stop-color:#F8EC38"/>
					<stop  offset="0.95" style="stop-color:#F9EC31"/>
				</linearGradient>
				<path style="fill:url(#SVGID_00000023259658752503182170000016291282763776542115_);" d="M229.6,111.6h-3.3
					c-1,0-1.9-0.7-2.2-1.7c-0.7-2.5-1.7-4.8-2.9-7c-0.5-0.9-0.3-2,0.4-2.7l2.4-2.4c0.9-0.9,0.9-2.3,0-3.2l-5.8-5.8
					c-0.9-0.9-2.3-0.9-3.2,0l-2.4,2.4c-0.7,0.7-1.8,0.9-2.7,0.4c-2.2-1.2-4.5-2.2-7-2.9c-1-0.3-1.6-1.2-1.6-2.2v-3.3
					c0-1.2-1-2.3-2.3-2.3h-8.3c-1.2,0-2.3,1-2.3,2.3v3.3c0,1-0.7,1.9-1.6,2.2c-2.5,0.7-4.8,1.7-7,2.9c-0.9,0.5-2,0.3-2.7-0.4
					l-2.4-2.4c-0.9-0.9-2.3-0.9-3.2,0l-5.8,5.8c-0.9,0.9-0.9,2.3,0,3.2l2.4,2.4c0.7,0.7,0.9,1.8,0.4,2.7c-1.2,2.2-2.2,4.5-2.9,7
					c-0.3,1-1.2,1.7-2.2,1.7h-3.3c-1.2,0-2.3,1-2.3,2.3v8.3c0,1.2,1,2.3,2.3,2.3h3.3c1,0,1.9,0.7,2.2,1.7c0.7,2.5,1.7,4.8,2.9,7
					c0.5,0.9,0.3,2-0.4,2.7l-2.4,2.4c-0.9,0.9-0.9,2.3,0,3.2l5.8,5.8c0.9,0.9,2.3,0.9,3.2,0l2.4-2.4c0.7-0.7,1.8-0.9,2.7-0.4
					c2.2,1.2,4.5,2.2,7,2.9c1,0.3,1.6,1.2,1.6,2.2v3.3c0,1.2,1,2.3,2.3,2.3h8.3c1.2,0,2.3-1,2.3-2.3v-3.3c0-1,0.7-1.9,1.6-2.2
					c2.5-0.7,4.8-1.7,7-2.9c0.9-0.5,2-0.3,2.7,0.4l2.4,2.4c0.9,0.9,2.3,0.9,3.2,0l5.8-5.8c0.9-0.9,0.9-2.3,0-3.2l-2.4-2.4
					c-0.7-0.7-0.9-1.8-0.4-2.7c1.2-2.2,2.2-4.5,2.9-7c0.3-1,1.2-1.7,2.2-1.7h3.3c1.2,0,2.3-1,2.3-2.3v-8.3
					C231.9,112.6,230.9,111.6,229.6,111.6L229.6,111.6z M194.7,135.7c-9.8,0-17.7-7.9-17.7-17.7s7.9-17.7,17.7-17.7
					s17.7,7.9,17.7,17.7S204.5,135.7,194.7,135.7z"/>
				<g>
					<path class="st4" d="M80.9,92.8c-0.6,0-1.1-0.5-1.1-1.1v-60c0-2.9,2.4-5.3,5.3-5.3h129.2c2.9,0,5.3,2.4,5.3,5.3v48
						c0,0.6-0.5,1.1-1.1,1.1s-1.1-0.5-1.1-1.1v-48c0-1.7-1.4-3-3-3H85c-1.7,0-3,1.4-3,3v60C82,92.3,81.5,92.8,80.9,92.8z"/>
				</g>
				<g>
					<path class="st4" d="M85.5,92.8c-0.6,0-1.1-0.5-1.1-1.1V45.1h130.6V80c0,0.6-0.5,1.1-1.1,1.1s-1.1-0.5-1.1-1.1V47.4h-126v44.3
						C86.6,92.3,86.1,92.8,85.5,92.8z"/>
				</g>
				<g>
					<g>
						<path class="st4" d="M197,134.2c-10.4,0-18.8-8.4-18.8-18.8s8.4-18.8,18.8-18.8s18.8,8.4,18.8,18.8S207.4,134.2,197,134.2z
							 M197,98.9c-9.1,0-16.5,7.4-16.5,16.5c0,9.1,7.4,16.5,16.5,16.5s16.5-7.4,16.5-16.5C213.5,106.3,206.1,98.9,197,98.9z"/>
					</g>
					<g>
						<path class="st4" d="M201.1,153.7h-8.3c-1.9,0-3.4-1.5-3.4-3.4v-3.3c0-0.5-0.3-0.9-0.8-1.1c-2.6-0.7-5-1.7-7.3-3
							c-0.4-0.2-1-0.2-1.3,0.2l-2.4,2.4c-1.3,1.3-3.5,1.3-4.8,0l-5.8-5.8c-1.3-1.3-1.3-3.5,0-4.8l2.4-2.4c0.4-0.4,0.4-0.9,0.2-1.3
							c-1.3-2.3-2.3-4.7-3-7.3c-0.1-0.5-0.6-0.8-1.1-0.8h-3.3c-1.9,0-3.4-1.5-3.4-3.4v-8.3c0-1.9,1.5-3.4,3.4-3.4h3.3
							c0.5,0,0.9-0.3,1.1-0.8c0.7-2.6,1.7-5,3-7.3c0.2-0.4,0.2-1-0.2-1.3l-2.4-2.4c-1.3-1.3-1.3-3.5,0-4.8l5.8-5.8
							c1.3-1.3,3.5-1.3,4.8,0l2.4,2.4c0.4,0.4,0.9,0.4,1.3,0.2c2.3-1.3,4.7-2.3,7.3-3c0.5-0.1,0.8-0.6,0.8-1.1v-3.3
							c0-1.9,1.5-3.4,3.4-3.4h8.3c1.9,0,3.4,1.5,3.4,3.4v3.3c0,0.5,0.3,0.9,0.8,1.1c2.6,0.7,5,1.7,7.3,3c0.4,0.2,1,0.2,1.3-0.2
							l2.4-2.4c1.3-1.3,3.5-1.3,4.8,0l5.8,5.8c1.3,1.3,1.3,3.5,0,4.8l-2.4,2.4c-0.4,0.4-0.4,0.9-0.2,1.3c1.3,2.3,2.3,4.7,3,7.3
							c0.1,0.5,0.6,0.8,1.1,0.8h3.3c1.9,0,3.4,1.5,3.4,3.4v8.3c0,1.9-1.5,3.4-3.4,3.4h-3.3c-0.5,0-0.9,0.3-1.1,0.8
							c-0.7,2.6-1.7,5-3,7.3c-0.2,0.4-0.2,1,0.2,1.3l2.4,2.4c1.3,1.3,1.3,3.5,0,4.8l-5.8,5.8c-1.3,1.3-3.5,1.3-4.8,0L214,143
							c-0.4-0.4-0.9-0.4-1.3-0.2c-2.3,1.3-4.7,2.3-7.3,3c-0.5,0.1-0.8,0.6-0.8,1.1v3.3C204.5,152.1,203,153.7,201.1,153.7z
							 M180.8,140.4c0.6,0,1.2,0.1,1.7,0.4c2.1,1.2,4.4,2.1,6.8,2.8c1.5,0.4,2.5,1.8,2.5,3.3v3.3c0,0.6,0.5,1.1,1.1,1.1h8.3
							c0.6,0,1.1-0.5,1.1-1.1v-3.3c0-1.5,1-2.9,2.5-3.3c2.4-0.6,4.6-1.6,6.8-2.8c1.3-0.7,3-0.5,4.1,0.5l2.4,2.4
							c0.4,0.4,1.1,0.4,1.6,0l5.8-5.8c0.4-0.4,0.4-1.2,0-1.6L223,134c-1.1-1.1-1.3-2.8-0.5-4.1c1.2-2.1,2.1-4.4,2.8-6.7
							c0.4-1.5,1.8-2.5,3.3-2.5h3.3c0.6,0,1.1-0.5,1.1-1.1v-8.3c0-0.6-0.5-1.1-1.1-1.1h-3.3c-1.5,0-2.9-1-3.3-2.5
							c-0.6-2.4-1.6-4.6-2.8-6.8c-0.7-1.3-0.5-3,0.5-4.1l2.4-2.4c0.4-0.4,0.4-1.1,0-1.6l-5.8-5.8c-0.4-0.4-1.2-0.4-1.6,0l-2.4,2.4
							c-1.1,1.1-2.8,1.3-4.1,0.6c-2.1-1.2-4.4-2.1-6.8-2.8c-1.5-0.4-2.5-1.8-2.5-3.3v-3.3c0-0.6-0.5-1.1-1.1-1.1h-8.3
							c-0.6,0-1.1,0.5-1.1,1.1v3.3c0,1.5-1,2.9-2.5,3.3c-2.4,0.6-4.6,1.6-6.8,2.8c-1.3,0.7-3,0.5-4.1-0.5l-2.4-2.4
							c-0.4-0.4-1.2-0.4-1.6,0l-5.8,5.8c-0.4,0.4-0.4,1.1,0,1.6l2.4,2.4c1.1,1.1,1.3,2.8,0.5,4.1c-1.2,2.1-2.1,4.4-2.8,6.7
							c-0.4,1.5-1.8,2.5-3.3,2.5h-3.3c-0.6,0-1.1,0.5-1.1,1.1v8.3c0,0.6,0.5,1.1,1.1,1.1h3.3c1.5,0,2.9,1,3.3,2.5
							c0.6,2.4,1.6,4.6,2.8,6.8c0.7,1.3,0.5,3-0.5,4.1l-2.4,2.4c-0.4,0.4-0.4,1.2,0,1.6l5.8,5.8c0.4,0.4,1.2,0.4,1.6,0l2.4-2.4
							C179.1,140.8,180,140.4,180.8,140.4z"/>
					</g>
				</g>
				<g>
					<path class="st4" d="M139,76.8H92.4v-21H139V76.8z M94.6,74.5h42V58h-42V74.5z"/>
				</g>
				<g>
					<path class="st4" d="M154.1,103.4h-38.3c-0.6,0-1.1-0.5-1.1-1.1s0.5-1.1,1.1-1.1h36V88H93.5c-0.6,0-1.1-0.5-1.1-1.1
						s0.5-1.1,1.1-1.1h60.6V103.4z"/>
				</g>
				<g>
					<path class="st4" d="M154.4,127h-26.7c-0.6,0-1.1-0.5-1.1-1.1s0.5-1.1,1.1-1.1h24.4v-13.1h-36.3c-0.6,0-1.1-0.5-1.1-1.1
						s0.5-1.1,1.1-1.1h38.5V127z"/>
				</g>
				<g>
					<path class="st4" d="M202.3,60h-55.8c-0.6,0-1.1-0.5-1.1-1.1s0.5-1.1,1.1-1.1h55.8c0.6,0,1.1,0.5,1.1,1.1S202.9,60,202.3,60z"
						/>
				</g>
				<g>
					<path class="st4" d="M184.8,70.3h-38.7c-0.6,0-1.1-0.5-1.1-1.1s0.5-1.1,1.1-1.1h38.7c0.6,0,1.1,0.5,1.1,1.1
						S185.4,70.3,184.8,70.3z"/>
				</g>
				<g>
					<path class="st4" d="M206.3,41.2c-2.2,0-4-1.8-4-4s1.8-4,4-4c2.2,0,4,1.8,4,4S208.5,41.2,206.3,41.2z M206.3,35.5
						c-0.9,0-1.7,0.8-1.7,1.7s0.8,1.7,1.7,1.7s1.7-0.8,1.7-1.7S207.2,35.5,206.3,35.5z"/>
				</g>
				<g>
					<path class="st4" d="M197.6,41.2c-2.2,0-4-1.8-4-4s1.8-4,4-4c2.2,0,4,1.8,4,4S199.8,41.2,197.6,41.2z M197.6,35.5
						c-0.9,0-1.7,0.8-1.7,1.7s0.8,1.7,1.7,1.7s1.7-0.8,1.7-1.7S198.6,35.5,197.6,35.5z"/>
				</g>
				<g>
					<path class="st4" d="M189,41.2c-2.2,0-4-1.8-4-4s1.8-4,4-4c2.2,0,4,1.8,4,4S191.2,41.2,189,41.2z M189,35.5
						c-0.9,0-1.7,0.8-1.7,1.7s0.8,1.7,1.7,1.7s1.7-0.8,1.7-1.7S189.9,35.5,189,35.5z"/>
				</g>
				<g>
					<path class="st4" d="M122.1,41.4H93.3c-2.4,0-4.3-1.9-4.3-4.3s1.9-4.3,4.3-4.3h28.8c2.4,0,4.3,1.9,4.3,4.3
						S124.4,41.4,122.1,41.4z M93.3,35.2c-1.1,0-2,0.9-2,2s0.9,2,2,2h28.8c1.1,0,2-0.9,2-2s-0.9-2-2-2H93.3z"/>
				</g>
				<g>
					<g>
						<path class="st4" d="M69,143.6H46.9c-2.5,0-4.5-2-4.5-4.5V99.2c0-2.5,2-4.6,4.5-4.6h58.5c2.5,0,4.5,2,4.5,4.6v13.2
							c0,0.6-0.5,1.1-1.1,1.1s-1.1-0.5-1.1-1.1V99.2c0-1.3-1-2.3-2.3-2.3H46.9c-1.3,0-2.3,1-2.3,2.3V139c0,1.3,1,2.3,2.3,2.3H69
							c0.6,0,1.1,0.5,1.1,1.1S69.6,143.6,69,143.6z"/>
					</g>
					<g>
						<path class="st4" d="M118,164.6H79.6c-2.5,0-4.6-2-4.6-4.5v-37.5c0-2.5,2-4.5,4.6-4.5H118c2.5,0,4.5,2,4.5,4.5v37.5
							C122.5,162.6,120.5,164.6,118,164.6z M79.6,120.3c-1.3,0-2.3,1-2.3,2.3v37.5c0,1.3,1,2.3,2.3,2.3H118c1.3,0,2.3-1,2.3-2.3
							v-37.5c0-1.3-1-2.3-2.3-2.3H79.6z"/>
					</g>
				</g>
				<g>
					<path class="st4" d="M100.8,175H69.4c-4.5,0-8.2-3.7-8.2-8.2v-16.4c0-0.6,0.5-1.1,1.1-1.1s1.1,0.5,1.1,1.1v16.4
						c0,3.3,2.7,5.9,5.9,5.9h31.4c0.6,0,1.1,0.5,1.1,1.1S101.5,175,100.8,175z"/>
				</g>
				<g>
					<path class="st4" d="M229.8,175H107.5c-0.6,0-1.1-0.5-1.1-1.1s0.5-1.1,1.1-1.1h122.4c3.3,0,5.9-2.7,5.9-5.9V129
						c0-0.6,0.5-1.1,1.1-1.1s1.1,0.5,1.1,1.1v37.7C238,171.3,234.4,175,229.8,175z"/>
				</g>
				<g>
					<path class="st4" d="M236.9,104c-0.6,0-1.1-0.5-1.1-1.1V62.2c0-3.3-2.7-5.9-5.9-5.9c-0.6,0-1.1-0.5-1.1-1.1s0.5-1.1,1.1-1.1
						c4.5,0,8.2,3.7,8.2,8.2v40.7C238,103.5,237.5,104,236.9,104z"/>
				</g>
				<g>
					<path class="st4" d="M62.4,92.8c-0.6,0-1.1-0.5-1.1-1.1V62.2c0-4.5,3.7-8.2,8.2-8.2c0.6,0,1.1,0.5,1.1,1.1s-0.5,1.1-1.1,1.1
						c-3.3,0-5.9,2.7-5.9,5.9v29.5C63.5,92.3,63,92.8,62.4,92.8z"/>
				</g>
				<g>
					<path class="st4" d="M99.1,115.8H51.4v-9.9h47.8V115.8z M53.6,113.5h43.2v-5.3H53.6V113.5z"/>
				</g>
				<g>
					<path class="st4" d="M63.5,127.1H51.4v-9.9h12.1V127.1z M53.6,124.9h7.6v-5.3h-7.6V124.9z"/>
				</g>
				<g>
					<path class="st4" d="M112.4,156.5H82.4v-8.1h30.1V156.5z M84.7,154.2h25.5v-3.6H84.7V154.2z"/>
				</g>
				<g>
					<path class="st4" d="M98.8,131.2H83.5c-0.6,0-1.1-0.5-1.1-1.1s0.5-1.1,1.1-1.1h15.2c0.6,0,1.1,0.5,1.1,1.1
						S99.4,131.2,98.8,131.2z"/>
				</g>
				<g>
					<path class="st4" d="M98.8,138H83.5c-0.6,0-1.1-0.5-1.1-1.1s0.5-1.1,1.1-1.1h15.2c0.6,0,1.1,0.5,1.1,1.1S99.4,138,98.8,138z"/>
				</g>
				<g>
					<path class="st4" d="M98.8,144.8H83.5c-0.6,0-1.1-0.5-1.1-1.1s0.5-1.1,1.1-1.1h15.2c0.6,0,1.1,0.5,1.1,1.1
						S99.4,144.8,98.8,144.8z"/>
				</g>
				<g>
					<path class="st4" d="M236.9,157.6H121.4c-0.6,0-1.1-0.5-1.1-1.1s0.5-1.1,1.1-1.1h115.6c0.6,0,1.1,0.5,1.1,1.1
						S237.5,157.6,236.9,157.6z"/>
				</g>
				<g>
					<g>
						<path class="st4" d="M141,200.9c-0.6,0-1.1-0.5-1.1-1.1v-20.3c0-0.6,0.5-1.1,1.1-1.1c0.6,0,1.1,0.5,1.1,1.1v20.3
							C142.1,200.4,141.6,200.9,141,200.9z"/>
					</g>
					<g>
						<path class="st4" d="M165,200.9c-0.6,0-1.1-0.5-1.1-1.1v-20.3c0-0.6,0.5-1.1,1.1-1.1s1.1,0.5,1.1,1.1v20.3
							C166.1,200.4,165.6,200.9,165,200.9z"/>
					</g>
				</g>
				<g>
					<path class="st4" d="M191.7,207.4h-77.5v-8.4h77.5V207.4z M116.5,205.1h72.9v-3.8h-72.9V205.1z"/>
				</g>
				<g>
					
						<linearGradient id="SVGID_00000111152737479088706590000009297917814571238790_" gradientUnits="userSpaceOnUse" x1="201.56" y1="109.345" x2="250.63" y2="109.345" gradientTransform="matrix(1 0 0 -1 0 224)">
						<stop  offset="0" style="stop-color:#C9E2D5"/>
						<stop  offset="1" style="stop-color:#FAF5CF"/>
					</linearGradient>
					<path style="fill:url(#SVGID_00000111152737479088706590000009297917814571238790_);" d="M203.5,101.9h45.1c1.1,0,2,0.9,2,2
						v21.6c0,1.1-0.9,2-2,2h-45.1c-1.1,0-2-0.9-2-2v-21.6C201.6,102.8,202.4,101.9,203.5,101.9z"/>
					<g>
						<path class="st4" d="M248.7,128.6h-45.2c-1.7,0-3.1-1.4-3.1-3.1v-21.6c0-1.7,1.4-3.1,3.1-3.1h45.2c1.7,0,3.1,1.4,3.1,3.1v21.6
							C251.8,127.2,250.4,128.6,248.7,128.6z M203.5,103c-0.5,0-0.8,0.4-0.8,0.8v21.6c0,0.5,0.4,0.8,0.8,0.8h45.2
							c0.5,0,0.8-0.4,0.8-0.8v-21.6c0-0.5-0.4-0.8-0.8-0.8H203.5z"/>
					</g>
					<g>
						<g>
							<g>
								<path class="st4" d="M218.3,123c-0.3,0-0.6-0.1-0.8-0.3l-6.8-6.8l7.3-7.3c0.4-0.4,1.2-0.4,1.6,0c0.4,0.4,0.4,1.2,0,1.6
									l-5.6,5.6l5.2,5.2c0.4,0.4,0.4,1.2,0,1.6C218.9,122.9,218.6,123,218.3,123z"/>
							</g>
							<g>
								<path class="st4" d="M233.5,123c-0.3,0-0.6-0.1-0.8-0.3c-0.4-0.4-0.4-1.2,0-1.6l5.6-5.6l-5.2-5.2c-0.4-0.4-0.4-1.2,0-1.6
									c0.4-0.4,1.2-0.4,1.6,0l6.8,6.8l-7.2,7.3C234.1,122.9,233.8,123,233.5,123z"/>
							</g>
						</g>
						<g>
							<path class="st4" d="M222.8,123c-0.2,0-0.4,0-0.5-0.1c-0.6-0.3-0.8-1-0.5-1.5l6.6-12.5c0.3-0.6,1-0.8,1.5-0.5
								c0.6,0.3,0.8,1,0.5,1.5l-6.6,12.5C223.6,122.8,223.2,123,222.8,123z"/>
						</g>
					</g>
				</g>
				<circle class="st6" cx="244.8" cy="38.7" r="14.8"/>
			</g>
		</g>
	</g>
</g>
</svg>
