<?xml version="1.0" encoding="utf-8"?>
<!-- Generator: Adobe Illustrator 27.2.0, SVG Export Plug-In . SVG Version: 6.00 Build 0)  -->
<svg version="1.1" id="Layer_1" xmlns="http://www.w3.org/2000/svg" xmlns:xlink="http://www.w3.org/1999/xlink" x="0px" y="0px"
	 viewBox="0 0 280 222.6" style="enable-background:new 0 0 280 222.6;" xml:space="preserve">
<style type="text/css">
	.st0{fill:#FFFFFF;}
	.st1{fill:url(#SVGID_1_);}
	.st2{opacity:0.46;fill:#B3C6BB;enable-background:new    ;}
	.st3{opacity:0.48;fill:url(#SVGID_00000031180299565696401410000011536554978344081542_);enable-background:new    ;}
	.st4{opacity:0.51;fill:url(#SVGID_00000170265935644729215670000012100573148232879026_);enable-background:new    ;}
	.st5{fill:#2A5182;}
	.st6{fill:#FFA751;}
	.st7{fill:url(#SVGID_00000175294250641770645800000008035752441722039221_);}
</style>
<g>
	<g id="Layer_2_00000013194842207873075750000015985647138852717440_">
		<g id="Layer_1-2">
			<g>
				<rect class="st0" width="280" height="222.6"/>
				
					<linearGradient id="SVGID_1_" gradientUnits="userSpaceOnUse" x1="237.4566" y1="182.0113" x2="210.0834" y2="160.0087" gradientTransform="matrix(1 0 0 -1 0 224)">
					<stop  offset="0" style="stop-color:#C9E2D5"/>
					<stop  offset="1" style="stop-color:#FAF5CF"/>
				</linearGradient>
				<rect x="211.3" y="40.5" class="st1" width="25" height="25"/>
				<path class="st2" d="M98.6,99.4c0,0.8,0.7,1.5,1.5,1.5s1.5-0.7,1.5-1.5s-0.7-1.5-1.5-1.5S98.6,98.6,98.6,99.4z M94.2,77.3
					c0-0.8-0.7-1.5-1.5-1.5s-1.5,0.7-1.5,1.5s0.7,1.5,1.5,1.5S94.2,78.1,94.2,77.3z M101.5,84.7c0-0.8-0.7-1.5-1.5-1.5
					s-1.5,0.7-1.5,1.5s0.7,1.5,1.5,1.5S101.5,85.5,101.5,84.7z M94.2,92.1c0-0.8-0.7-1.5-1.5-1.5s-1.5,0.7-1.5,1.5s0.7,1.5,1.5,1.5
					S94.2,92.9,94.2,92.1z M72,84.7c0-0.8-0.7-1.5-1.5-1.5S69,83.8,69,84.7s0.7,1.5,1.5,1.5S72,85.5,72,84.7z M79.4,77.3
					c0-0.8-0.7-1.5-1.5-1.5s-1.5,0.7-1.5,1.5s0.7,1.5,1.5,1.5S79.4,78.1,79.4,77.3z M79.4,92c0-0.8-0.7-1.5-1.5-1.5
					s-1.5,0.7-1.5,1.5s0.7,1.5,1.5,1.5S79.4,92.9,79.4,92z M64.6,92c0-0.8-0.7-1.5-1.5-1.5s-1.5,0.7-1.5,1.5s0.7,1.5,1.5,1.5
					S64.6,92.9,64.6,92z M64.6,77.3c0-0.8-0.7-1.5-1.5-1.5s-1.5,0.7-1.5,1.5s0.7,1.5,1.5,1.5S64.6,78.1,64.6,77.3z M72,99.4
					c0-0.8-0.7-1.5-1.5-1.5S69,98.6,69,99.4s0.7,1.5,1.5,1.5S72,100.3,72,99.4z M86.8,84.7c0-0.8-0.7-1.5-1.5-1.5s-1.5,0.7-1.5,1.5
					s0.7,1.5,1.5,1.5S86.8,85.5,86.8,84.7z M86.8,99.4c0-0.8-0.7-1.5-1.5-1.5s-1.5,0.7-1.5,1.5s0.7,1.5,1.5,1.5
					S86.8,100.3,86.8,99.4z M42.5,84.7c0-0.8-0.7-1.5-1.5-1.5s-1.5,0.7-1.5,1.5s0.7,1.5,1.5,1.5S42.5,85.5,42.5,84.7z M35.1,77.3
					c0-0.8-0.7-1.5-1.5-1.5s-1.5,0.7-1.5,1.5s0.7,1.5,1.5,1.5S35.1,78.1,35.1,77.3z M49.8,77.3c0-0.8-0.7-1.5-1.5-1.5
					s-1.5,0.7-1.5,1.5s0.7,1.5,1.5,1.5S49.8,78.1,49.8,77.3z M35.1,92c0-0.8-0.7-1.5-1.5-1.5s-1.5,0.7-1.5,1.5s0.7,1.5,1.5,1.5
					S35.1,92.9,35.1,92z M49.8,92c0-0.8-0.7-1.5-1.5-1.5s-1.5,0.7-1.5,1.5s0.7,1.5,1.5,1.5S49.8,92.9,49.8,92z M42.4,99.4
					c0-0.8-0.7-1.5-1.5-1.5s-1.5,0.7-1.5,1.5s0.7,1.5,1.5,1.5S42.4,100.3,42.4,99.4z M57.2,84.7c0-0.8-0.7-1.5-1.5-1.5
					s-1.5,0.7-1.5,1.5s0.7,1.5,1.5,1.5S57.2,85.5,57.2,84.7z M57.2,99.4c0-0.8-0.7-1.5-1.5-1.5s-1.5,0.7-1.5,1.5s0.7,1.5,1.5,1.5
					S57.2,100.3,57.2,99.4z M20.3,77.3c0-0.8-0.7-1.5-1.5-1.5s-1.5,0.7-1.5,1.5s0.7,1.5,1.5,1.5S20.3,78.1,20.3,77.3z M20.3,92
					c0-0.8-0.7-1.5-1.5-1.5s-1.5,0.7-1.5,1.5s0.7,1.5,1.5,1.5S20.3,92.9,20.3,92z M12.9,84.7c0-0.8-0.7-1.5-1.5-1.5
					s-1.5,0.7-1.5,1.5s0.7,1.5,1.5,1.5S12.9,85.5,12.9,84.7z M12.9,99.4c0-0.8-0.7-1.5-1.5-1.5s-1.5,0.7-1.5,1.5s0.7,1.5,1.5,1.5
					S12.9,100.2,12.9,99.4z M27.7,84.7c0-0.8-0.7-1.5-1.5-1.5s-1.5,0.7-1.5,1.5s0.7,1.5,1.5,1.5S27.7,85.5,27.7,84.7z M27.7,99.4
					c0-0.8-0.7-1.5-1.5-1.5s-1.5,0.7-1.5,1.5s0.7,1.5,1.5,1.5S27.7,100.2,27.7,99.4z M101.5,55.1c0-0.8-0.7-1.5-1.5-1.5
					s-1.5,0.7-1.5,1.5s0.7,1.5,1.5,1.5S101.5,55.9,101.5,55.1z M94.2,62.5c0-0.8-0.7-1.5-1.5-1.5s-1.5,0.7-1.5,1.5s0.7,1.5,1.5,1.5
					S94.2,63.3,94.2,62.5z M94.2,47.7c0-0.8-0.7-1.5-1.5-1.5s-1.5,0.7-1.5,1.5s0.7,1.5,1.5,1.5S94.2,48.5,94.2,47.7z M101.5,69.9
					c0-0.8-0.7-1.5-1.5-1.5s-1.5,0.7-1.5,1.5s0.7,1.5,1.5,1.5S101.5,70.7,101.5,69.9z M72,55.1c0-0.8-0.7-1.5-1.5-1.5
					S69,54.3,69,55.1s0.7,1.5,1.5,1.5S72,55.9,72,55.1z M64.6,62.5c0-0.8-0.7-1.5-1.5-1.5s-1.5,0.7-1.5,1.5s0.7,1.5,1.5,1.5
					S64.6,63.3,64.6,62.5z M64.6,47.7c0-0.8-0.7-1.5-1.5-1.5s-1.5,0.7-1.5,1.5s0.7,1.5,1.5,1.5S64.6,48.5,64.6,47.7z M79.4,47.7
					c0-0.8-0.7-1.5-1.5-1.5s-1.5,0.7-1.5,1.5s0.7,1.5,1.5,1.5S79.4,48.5,79.4,47.7z M79.4,62.5c0-0.8-0.7-1.5-1.5-1.5
					s-1.5,0.7-1.5,1.5s0.7,1.5,1.5,1.5S79.4,63.3,79.4,62.5z M72,69.9c0-0.8-0.7-1.5-1.5-1.5S69,69.1,69,69.9s0.7,1.5,1.5,1.5
					S72,70.7,72,69.9z M86.8,55.1c0-0.8-0.7-1.5-1.5-1.5s-1.5,0.7-1.5,1.5s0.7,1.5,1.5,1.5S86.8,55.9,86.8,55.1z M86.8,69.9
					c0-0.8-0.7-1.5-1.5-1.5s-1.5,0.7-1.5,1.5s0.7,1.5,1.5,1.5S86.8,70.7,86.8,69.9z M42.5,55.1c0-0.8-0.7-1.5-1.5-1.5
					s-1.5,0.7-1.5,1.5s0.7,1.5,1.5,1.5S42.5,55.9,42.5,55.1z M35.1,47.7c0-0.8-0.7-1.5-1.5-1.5s-1.5,0.7-1.5,1.5s0.7,1.5,1.5,1.5
					S35.1,48.5,35.1,47.7z M49.8,47.7c0-0.8-0.7-1.5-1.5-1.5s-1.5,0.7-1.5,1.5s0.7,1.5,1.5,1.5S49.8,48.5,49.8,47.7z M35.1,62.5
					c0-0.8-0.7-1.5-1.5-1.5s-1.5,0.7-1.5,1.5s0.7,1.5,1.5,1.5S35.1,63.3,35.1,62.5z M49.8,62.5c0-0.8-0.7-1.5-1.5-1.5
					s-1.5,0.7-1.5,1.5s0.7,1.5,1.5,1.5S49.8,63.3,49.8,62.5z M42.4,69.9c0-0.8-0.7-1.5-1.5-1.5s-1.5,0.7-1.5,1.5s0.7,1.5,1.5,1.5
					S42.4,70.7,42.4,69.9z M57.2,55.1c0-0.8-0.7-1.5-1.5-1.5s-1.5,0.7-1.5,1.5s0.7,1.5,1.5,1.5S57.2,55.9,57.2,55.1z M57.2,69.9
					c0-0.8-0.7-1.5-1.5-1.5s-1.5,0.7-1.5,1.5s0.7,1.5,1.5,1.5S57.2,70.7,57.2,69.9z M12.9,55.1c0-0.8-0.7-1.5-1.5-1.5
					s-1.5,0.7-1.5,1.5s0.7,1.5,1.5,1.5S12.9,55.9,12.9,55.1z M20.3,47.7c0-0.8-0.7-1.5-1.5-1.5s-1.5,0.7-1.5,1.5s0.7,1.5,1.5,1.5
					S20.3,48.5,20.3,47.7z M20.3,62.5c0-0.8-0.7-1.5-1.5-1.5s-1.5,0.7-1.5,1.5S18,64,18.8,64S20.3,63.3,20.3,62.5z M12.9,69.9
					c0-0.8-0.7-1.5-1.5-1.5S9.9,69,9.9,69.9s0.7,1.5,1.5,1.5S12.9,70.7,12.9,69.9z M27.7,55.1c0-0.8-0.7-1.5-1.5-1.5
					s-1.5,0.7-1.5,1.5s0.7,1.5,1.5,1.5S27.7,55.9,27.7,55.1z M27.7,69.9c0-0.8-0.7-1.5-1.5-1.5s-1.5,0.7-1.5,1.5s0.7,1.5,1.5,1.5
					S27.7,70.7,27.7,69.9z M94.2,18.2c0-0.8-0.7-1.5-1.5-1.5s-1.5,0.7-1.5,1.5s0.7,1.5,1.5,1.5S94.2,19,94.2,18.2z M101.5,25.6
					c0-0.8-0.7-1.5-1.5-1.5s-1.5,0.7-1.5,1.5S99.2,27,100,27S101.5,26.4,101.5,25.6z M94.2,33c0-0.8-0.7-1.5-1.5-1.5
					s-1.5,0.7-1.5,1.5s0.7,1.5,1.5,1.5S94.2,33.8,94.2,33z M101.5,40.3c0-0.8-0.7-1.5-1.5-1.5s-1.5,0.7-1.5,1.5s0.7,1.5,1.5,1.5
					S101.5,41.2,101.5,40.3z M64.6,33c0-0.8-0.7-1.5-1.5-1.5s-1.5,0.7-1.5,1.5s0.7,1.5,1.5,1.5S64.6,33.8,64.6,33z M72,25.6
					c0-0.8-0.7-1.5-1.5-1.5S69,24.7,69,25.6s0.7,1.5,1.5,1.5S72,26.4,72,25.6z M79.4,18.2c0-0.8-0.7-1.5-1.5-1.5s-1.5,0.7-1.5,1.5
					s0.7,1.5,1.5,1.5S79.4,19,79.4,18.2z M64.6,18.2c0-0.8-0.7-1.5-1.5-1.5s-1.5,0.7-1.5,1.5s0.7,1.5,1.5,1.5S64.6,19,64.6,18.2z
					 M79.4,33c0-0.8-0.7-1.5-1.5-1.5s-1.5,0.7-1.5,1.5s0.7,1.5,1.5,1.5S79.4,33.8,79.4,33z M72,40.3c0-0.8-0.7-1.5-1.5-1.5
					S69,39.5,69,40.3s0.7,1.5,1.5,1.5S72,41.2,72,40.3z M86.8,25.6c0-0.8-0.7-1.5-1.5-1.5s-1.5,0.7-1.5,1.5s0.7,1.5,1.5,1.5
					S86.8,26.4,86.8,25.6z M86.8,40.3c0-0.8-0.7-1.5-1.5-1.5s-1.5,0.7-1.5,1.5s0.7,1.5,1.5,1.5S86.8,41.2,86.8,40.3z M42.4,25.6
					c0-0.8-0.7-1.5-1.5-1.5s-1.5,0.7-1.5,1.5S40.1,27,41,27S42.4,26.4,42.4,25.6z M49.8,18.2c0-0.8-0.7-1.5-1.5-1.5
					s-1.5,0.7-1.5,1.5s0.7,1.5,1.5,1.5S49.8,19,49.8,18.2z M35.1,18.2c0-0.8-0.7-1.5-1.5-1.5s-1.5,0.7-1.5,1.5s0.7,1.5,1.5,1.5
					S35.1,19,35.1,18.2z M35.1,33c0-0.8-0.7-1.5-1.5-1.5s-1.5,0.7-1.5,1.5s0.7,1.5,1.5,1.5S35.1,33.8,35.1,33z M42.5,40.3
					c0-0.8-0.7-1.5-1.5-1.5s-1.5,0.7-1.5,1.5s0.7,1.5,1.5,1.5S42.5,41.2,42.5,40.3z M49.8,33c0-0.8-0.7-1.5-1.5-1.5
					s-1.5,0.7-1.5,1.5s0.7,1.5,1.5,1.5S49.8,33.8,49.8,33z M57.2,25.6c0-0.8-0.7-1.5-1.5-1.5s-1.5,0.7-1.5,1.5s0.7,1.5,1.5,1.5
					S57.2,26.4,57.2,25.6z M57.2,40.3c0-0.8-0.7-1.5-1.5-1.5s-1.5,0.7-1.5,1.5s0.7,1.5,1.5,1.5S57.2,41.2,57.2,40.3z M12.9,25.6
					c0-0.8-0.7-1.5-1.5-1.5S10,24.8,10,25.6s0.7,1.5,1.5,1.5S12.9,26.4,12.9,25.6z M20.3,18.2c0-0.8-0.7-1.5-1.5-1.5
					s-1.5,0.7-1.5,1.5s0.7,1.5,1.5,1.5S20.3,19,20.3,18.2z M12.9,40.3c0-0.8-0.7-1.5-1.5-1.5S10,39.5,10,40.3s0.7,1.5,1.5,1.5
					S12.9,41.2,12.9,40.3z M20.3,33c0-0.8-0.7-1.5-1.5-1.5s-1.5,0.7-1.5,1.5s0.7,1.5,1.5,1.5S20.3,33.8,20.3,33z M27.7,25.6
					c0-0.8-0.7-1.5-1.5-1.5s-1.5,0.7-1.5,1.5s0.7,1.5,1.5,1.5S27.7,26.4,27.7,25.6z M27.7,40.3c0-0.8-0.7-1.5-1.5-1.5
					s-1.5,0.7-1.5,1.5s0.7,1.5,1.5,1.5S27.7,41.2,27.7,40.3z M101.5,10.8c0-0.8-0.7-1.5-1.5-1.5s-1.5,0.7-1.5,1.5s0.7,1.5,1.5,1.5
					S101.5,11.6,101.5,10.8z M72,10.8c0-0.8-0.7-1.5-1.5-1.5S69,10,69,10.8s0.7,1.5,1.5,1.5S72,11.6,72,10.8z M86.8,10.8
					c0-0.8-0.7-1.5-1.5-1.5s-1.5,0.7-1.5,1.5s0.7,1.5,1.5,1.5S86.8,11.6,86.8,10.8z M42.5,10.8c0-0.8-0.7-1.5-1.5-1.5
					s-1.5,0.7-1.5,1.5s0.7,1.5,1.5,1.5S42.5,11.6,42.5,10.8z M57.2,10.8c0-0.8-0.7-1.5-1.5-1.5s-1.5,0.7-1.5,1.5s0.7,1.5,1.5,1.5
					S57.2,11.6,57.2,10.8z M12.9,10.8c0-0.8-0.7-1.5-1.5-1.5S10,10,10,10.8s0.7,1.5,1.5,1.5S12.9,11.6,12.9,10.8z M27.7,10.8
					c0-0.8-0.7-1.5-1.5-1.5s-1.5,0.7-1.5,1.5s0.7,1.5,1.5,1.5S27.7,11.6,27.7,10.8z"/>
				
					<linearGradient id="SVGID_00000172428939337554005790000011029292991093364403_" gradientUnits="userSpaceOnUse" x1="95.4693" y1="80.5444" x2="30.7907" y2="28.5556" gradientTransform="matrix(1 0 0 -1 0 224)">
					<stop  offset="0" style="stop-color:#C9E2D5"/>
					<stop  offset="1" style="stop-color:#FAF5CF"/>
				</linearGradient>
				
					<circle style="opacity:0.48;fill:url(#SVGID_00000172428939337554005790000011029292991093364403_);enable-background:new    ;" cx="63.1" cy="169.4" r="41.5"/>
				
					<linearGradient id="SVGID_00000060723768658576782830000012840749730004211593_" gradientUnits="userSpaceOnUse" x1="131.65" y1="104.885" x2="207.44" y2="104.885" gradientTransform="matrix(1 0 0 -1 0 224)">
					<stop  offset="0" style="stop-color:#C9E2D5"/>
					<stop  offset="1" style="stop-color:#FAF5CF"/>
				</linearGradient>
				
					<path style="opacity:0.51;fill:url(#SVGID_00000060723768658576782830000012840749730004211593_);enable-background:new    ;" d="
					M137.3,75.1h64.4c3.1,0,5.7,2.5,5.7,5.7v76.7c0,3.1-2.5,5.7-5.7,5.7h-64.4c-3.1,0-5.7-2.5-5.7-5.7V80.8
					C131.6,77.6,134.2,75.1,137.3,75.1z"/>
				<g>
					<path class="st5" d="M129.9,52.1c-2,0-3.6-1.6-3.6-3.6s1.6-3.6,3.6-3.6c2,0,3.6,1.6,3.6,3.6S131.9,52.1,129.9,52.1z
						 M129.9,46.8c-0.9,0-1.6,0.7-1.6,1.6s0.7,1.6,1.6,1.6s1.6-0.7,1.6-1.6S130.8,46.8,129.9,46.8z"/>
				</g>
				<g>
					<path class="st5" d="M139.1,191h-18.4c-1.6,0-2.9-1.3-2.9-2.9s1.3-2.9,2.9-2.9h18.4c1.6,0,2.9,1.3,2.9,2.9S140.7,191,139.1,191
						z M120.7,187.1c-0.5,0-0.9,0.4-0.9,0.9s0.4,0.9,0.9,0.9h18.4c0.5,0,0.9-0.4,0.9-0.9s-0.4-0.9-0.9-0.9H120.7z"/>
				</g>
				<g>
					<path class="st5" d="M53,121.8c-3.9,0-7.1-3.2-7.1-7.1s3.2-7.1,7.1-7.1c3.9,0,7.1,3.2,7.1,7.1S56.9,121.8,53,121.8z M53,109.6
						c-2.8,0-5.1,2.3-5.1,5.1c0,2.8,2.3,5.1,5.1,5.1s5.1-2.3,5.1-5.1C58.1,111.9,55.8,109.6,53,109.6z"/>
				</g>
				<g>
					<path class="st5" d="M53,183.2c-3.9,0-7.1-3.2-7.1-7.1s3.2-7.1,7.1-7.1c3.9,0,7.1,3.2,7.1,7.1S56.9,183.2,53,183.2z M53,171
						c-2.8,0-5.1,2.3-5.1,5.1c0,2.8,2.3,5.1,5.1,5.1s5.1-2.3,5.1-5.1C58.1,173.3,55.8,171,53,171z"/>
				</g>
				<g>
					<path class="st5" d="M76.7,177.1H59.1c-0.6,0-1-0.4-1-1s0.4-1,1-1h17.5c0.6,0,1,0.4,1,1S77.2,177.1,76.7,177.1z"/>
				</g>
				<g>
					<path class="st5" d="M53,171c-0.6,0-1-0.4-1-1v-49.1c0-0.6,0.4-1,1-1s1,0.4,1,1V170C54,170.5,53.6,171,53,171z"/>
				</g>
				<g>
					<path class="st5" d="M70.9,115.7H60c-0.6,0-1-0.4-1-1s0.4-1,1-1h10.9c0.6,0,1,0.4,1,1S71.4,115.7,70.9,115.7z"/>
				</g>
				<g>
					<path class="st5" d="M170.2,146.8h-32.1v-8.3h32.1V146.8z M140.1,144.8h28.1v-4.3h-28.1V144.8z"/>
				</g>
				<g>
					<path class="st5" d="M184.2,113.3h-46.4V99.1h46.4V113.3z M139.8,111.3h42.4v-10.2h-42.4V111.3z"/>
				</g>
				<g>
					<path class="st5" d="M155.6,119.5h-16.5c-0.6,0-1-0.4-1-1s0.4-1,1-1h16.5c0.6,0,1,0.4,1,1S156.2,119.5,155.6,119.5z"/>
				</g>
				<g>
					<path class="st5" d="M155.6,126.9h-16.5c-0.6,0-1-0.4-1-1s0.4-1,1-1h16.5c0.6,0,1,0.4,1,1S156.2,126.9,155.6,126.9z"/>
				</g>
				<g>
					<path class="st5" d="M155.6,134.3h-16.5c-0.6,0-1-0.4-1-1s0.4-1,1-1h16.5c0.6,0,1,0.4,1,1S156.2,134.3,155.6,134.3z"/>
				</g>
				<g>
					<path class="st5" d="M85.8,127.1c-0.6,0-1-0.4-1-1V97.6c0-0.6,0.4-1,1-1s1,0.4,1,1v28.5C86.8,126.6,86.4,127.1,85.8,127.1z"/>
				</g>
				<g>
					<path class="st5" d="M159.7,198.7h-59.6c-8.4,0-15.3-6.9-15.3-15.3v-6c0-0.6,0.4-1,1-1s1,0.4,1,1v6c0,7.3,6,13.3,13.3,13.3
						h59.6c7.3,0,13.3-6,13.3-13.3V169c0-0.6,0.4-1,1-1s1,0.4,1,1v14.3C175,191.8,168.2,198.7,159.7,198.7z"/>
				</g>
				<g>
					<path class="st5" d="M174,69c-0.6,0-1-0.4-1-1V54.7c0-7.3-6-13.3-13.3-13.3h-59.6c-5.6,0-10.7,3.6-12.6,8.9
						c-0.2,0.5-0.8,0.8-1.3,0.6c-0.5-0.2-0.8-0.8-0.6-1.3c2.1-6.1,7.9-10.3,14.4-10.3h59.6c8.4,0,15.3,6.9,15.3,15.3V68
						C175,68.6,174.6,69,174,69z"/>
				</g>
				<g>
					<path class="st5" d="M198.6,164.2h-72.4c-2.4,0-4.4-2-4.4-4.4V78.5c0-2.4,2-4.4,4.4-4.4h72.4c2.4,0,4.4,2,4.4,4.4v81.3
						C203,162.2,201,164.2,198.6,164.2z M126.2,76.1c-1.3,0-2.4,1.1-2.4,2.4v81.3c0,1.3,1.1,2.4,2.4,2.4h72.4c1.3,0,2.4-1.1,2.4-2.4
						V78.5c0-1.3-1.1-2.4-2.4-2.4H126.2z"/>
				</g>
				<g>
					<path class="st5" d="M197,157.1h-69.3V89.7H197V157.1z M129.7,155.1H195V91.7h-65.3V155.1z"/>
				</g>
				<g>
					<path class="st5" d="M197,86h-43v-6.3h43V86z M156,84h39v-2.3h-39V84z"/>
				</g>
				<g>
					<path class="st5" d="M107.9,93.4H58.9V56.8h48.9V93.4z M60.9,91.4h44.9V58.8H60.9V91.4z"/>
				</g>
				<g>
					<path class="st5" d="M97.8,69H69.3c-0.6,0-1-0.4-1-1s0.4-1,1-1h28.5c0.6,0,1,0.4,1,1S98.3,69,97.8,69z"/>
				</g>
				<g>
					<path class="st5" d="M85.2,80.8H69.3c-0.6,0-1-0.4-1-1s0.4-1,1-1h15.8c0.6,0,1,0.4,1,1S85.7,80.8,85.2,80.8z"/>
				</g>
				<g>
					<path class="st5" d="M166.5,181.1h-54c-0.6,0-1-0.4-1-1s0.4-1,1-1h52v-10c0-0.6,0.4-1,1-1s1,0.4,1,1V181.1z"/>
				</g>
				<g>
					<path class="st5" d="M165.5,70.1c-0.6,0-1-0.4-1-1V59H114c-0.6,0-1-0.4-1-1s0.4-1,1-1h52.5v12.2
						C166.5,69.7,166.1,70.1,165.5,70.1z"/>
				</g>
				<g>
					<path class="st5" d="M94.3,124.4c-0.6,0-1-0.4-1-1V95.8c0-0.6,0.4-1,1-1s1,0.4,1,1v27.6C95.3,124,94.9,124.4,94.3,124.4z"/>
				</g>
				<circle class="st6" cx="234.9" cy="135" r="9.1"/>
				<g>
					
						<linearGradient id="SVGID_00000170254267689119436700000005640863573604878501_" gradientUnits="userSpaceOnUse" x1="66.34" y1="79.825" x2="115.41" y2="79.825" gradientTransform="matrix(1 0 0 -1 0 224)">
						<stop  offset="0" style="stop-color:#F2F2F2"/>
						<stop  offset="7.000000e-02" style="stop-color:#F2F1DC"/>
						<stop  offset="0.31" style="stop-color:#F4EFA0"/>
						<stop  offset="0.52" style="stop-color:#F6ED70"/>
						<stop  offset="0.7" style="stop-color:#F7EC4D"/>
						<stop  offset="0.85" style="stop-color:#F8EC38"/>
						<stop  offset="0.95" style="stop-color:#F9EC31"/>
					</linearGradient>
					<path style="fill:url(#SVGID_00000170254267689119436700000005640863573604878501_);" d="M68.3,131.4h45.2c1.1,0,2,0.9,2,2V155
						c0,1.1-0.9,2-2,2H68.3c-1.1,0-2-0.9-2-2v-21.6C66.3,132.3,67.2,131.4,68.3,131.4z"/>
					<g>
						<path class="st5" d="M113.5,158.1H68.3c-1.7,0-3.1-1.4-3.1-3.1v-21.6c0-1.7,1.4-3.1,3.1-3.1h45.2c1.7,0,3.1,1.4,3.1,3.1V155
							C116.6,156.7,115.2,158.1,113.5,158.1z M68.3,132.5c-0.5,0-0.8,0.4-0.8,0.8V155c0,0.5,0.4,0.8,0.8,0.8h45.2
							c0.5,0,0.8-0.4,0.8-0.8v-21.6c0-0.5-0.4-0.8-0.8-0.8H68.3z"/>
					</g>
					<g>
						<g>
							<g>
								<path class="st5" d="M83.1,152.5c-0.3,0-0.6-0.1-0.8-0.3l-6.8-6.8l7.2-7.2c0.4-0.4,1.2-0.4,1.6,0s0.4,1.2,0,1.6l-5.6,5.6
									l5.2,5.2c0.4,0.4,0.4,1.2,0,1.6C83.7,152.4,83.4,152.5,83.1,152.5z"/>
							</g>
							<g>
								<path class="st5" d="M98.3,152.5c-0.3,0-0.6-0.1-0.8-0.3c-0.4-0.4-0.4-1.2,0-1.6l5.6-5.6l-5.2-5.2c-0.4-0.4-0.4-1.2,0-1.6
									c0.4-0.4,1.2-0.4,1.6,0l6.8,6.8l-7.2,7.2C98.8,152.4,98.6,152.5,98.3,152.5z"/>
							</g>
						</g>
						<g>
							<path class="st5" d="M87.6,152.5c-0.2,0-0.4,0-0.5-0.1c-0.6-0.3-0.8-1-0.5-1.5l6.6-12.5c0.3-0.6,1-0.8,1.5-0.5
								c0.6,0.3,0.8,1,0.5,1.5l-6.6,12.5C88.4,152.3,88,152.5,87.6,152.5z"/>
						</g>
					</g>
				</g>
				<g>
					<path class="st5" d="M216.1,62.3V43.7l16.1,9.3L216.1,62.3z M218.1,47.2v11.6l10.1-5.8L218.1,47.2z"/>
				</g>
				<g>
					<path class="st5" d="M232.7,66.5h-21.4c-1.5,0-2.8-1.2-2.8-2.8V42.3c0-1.5,1.2-2.8,2.8-2.8h21.4c1.5,0,2.8,1.2,2.8,2.8v21.4
						C235.5,65.2,234.2,66.5,232.7,66.5z M211.3,41.5c-0.4,0-0.8,0.3-0.8,0.8v21.4c0,0.4,0.3,0.8,0.8,0.8h21.4
						c0.4,0,0.8-0.3,0.8-0.8V42.3c0-0.4-0.3-0.8-0.8-0.8H211.3z"/>
				</g>
				<g>
					<path class="st5" d="M232.7,98.8h-21.4c-1.5,0-2.8-1.2-2.8-2.8V74.6c0-1.5,1.2-2.8,2.8-2.8h21.4c1.5,0,2.8,1.2,2.8,2.8V96
						C235.5,97.5,234.2,98.8,232.7,98.8z M211.3,73.8c-0.4,0-0.8,0.3-0.8,0.8V96c0,0.4,0.3,0.8,0.8,0.8h21.4c0.4,0,0.8-0.3,0.8-0.8
						V74.6c0-0.4-0.3-0.8-0.8-0.8H211.3z"/>
				</g>
				<g>
					<g>
						<path class="st5" d="M222,95.7l-0.7-0.8c-0.7-0.8-7-8-7-11.9c0-4.3,3.5-7.7,7.7-7.7s7.7,3.5,7.7,7.7c0,4-6.2,11.1-7,11.9
							L222,95.7z M222,77.2c-3.1,0-5.7,2.6-5.7,5.7c0,2.4,3.6,7.2,5.7,9.7c2.1-2.5,5.7-7.3,5.7-9.7C227.7,79.8,225.1,77.2,222,77.2z
							"/>
					</g>
					<g>
						<path class="st5" d="M222,86.9c-2.1,0-3.8-1.7-3.8-3.8s1.7-3.8,3.8-3.8s3.8,1.7,3.8,3.8S224.1,86.9,222,86.9z M222,81.3
							c-1,0-1.8,0.8-1.8,1.8s0.8,1.8,1.8,1.8s1.8-0.8,1.8-1.8S223,81.3,222,81.3z"/>
					</g>
				</g>
				<g>
					<g>
						<path class="st5" d="M244.3,183.5c-1.9,0-3.5-1.6-3.5-3.5s1.6-3.5,3.5-3.5c1.9,0,3.5,1.6,3.5,3.5S246.2,183.5,244.3,183.5z
							 M244.3,178.6c-0.8,0-1.5,0.7-1.5,1.5s0.7,1.5,1.5,1.5s1.5-0.7,1.5-1.5S245.1,178.6,244.3,178.6z"/>
					</g>
					<g>
						<path class="st5" d="M250.5,188h-63.9c-1.5,0-2.6-1.2-2.6-2.7v-10.6c0-1.5,1.2-2.6,2.6-2.6h63.9c1.5,0,2.6,1.2,2.6,2.6v10.6
							C253.1,186.8,252,188,250.5,188z M186.5,174.1c-0.4,0-0.6,0.3-0.6,0.6v10.6c0,0.4,0.3,0.7,0.6,0.7h63.9c0.4,0,0.6-0.3,0.6-0.7
							v-10.6c0-0.4-0.3-0.6-0.6-0.6H186.5z"/>
					</g>
					<g>
						<path class="st5" d="M236.5,188c-0.6,0-1-0.4-1-1v-13.9c0-0.6,0.4-1,1-1s1,0.4,1,1V187C237.5,187.5,237,188,236.5,188z"/>
					</g>
				</g>
			</g>
		</g>
	</g>
</g>
</svg>
